<svg width="1440" height="959" viewBox="0 0 1440 959" fill="none" xmlns="http://www.w3.org/2000/svg">
<g style="mix-blend-mode:luminosity" opacity="0.4" clip-path="url(#clip0_84_521)">
<mask id="mask0_84_521" style="mask-type:luminance" maskUnits="userSpaceOnUse" x="0" y="-2" width="1441" height="962">
<path d="M1440.16 -1.8833H0V959H1440.16V-1.8833Z" fill="white"/>
</mask>
<g mask="url(#mask0_84_521)">
<g style="mix-blend-mode:multiply">
<path d="M819.358 -102.392C807.779 -52.7139 793.204 -3.72804 775.769 44.2201C768.011 65.5325 759.408 87.1139 744.45 104.141C706.18 147.669 639.222 149.033 582.076 139.559C529.443 130.853 477.847 115.844 428.747 94.974C380.088 74.2957 333.024 47.6023 280.871 38.8391C228.737 30.0758 168.077 44.1624 139.984 88.9972C123.278 115.671 120.609 149.418 127.138 180.224C133.667 211.029 148.644 239.356 165.254 266.088C184.284 296.702 206.366 327.681 209.227 363.618C212.184 400.823 191.638 438.855 158.937 456.766C112.41 482.249 55.4369 466.259 3.26455 456.747C-63.0214 444.64 -134.127 444.755 -194.691 474.312C-255.255 503.888 -302.07 568.132 -295.848 635.298" stroke="#4700FB" stroke-miterlimit="10"/>
<path d="M807.606 -112.442C796.315 -63.8793 781.99 -16.0273 764.785 30.7485C757.123 51.542 748.636 72.5854 734.042 89.2471C696.771 131.872 631.983 134.216 576.411 126.107C563.22 124.185 550.085 121.84 537.028 119.111C499.449 111.232 462.562 100.047 426.942 85.7111C379.397 66.551 333.312 41.5488 282.349 33.5159C231.406 25.4636 173.934 40.1651 144.266 81.8291C133.11 97.5107 125.486 114.403 122.26 132.641C120.052 145.055 119.572 157.95 120.878 170.768C121.473 176.63 122.395 182.491 123.662 188.372C128.77 211.894 139.619 234.917 151.505 256.806C152.677 258.978 153.867 261.13 155.077 263.302C173.665 296.894 193.289 331.236 194.365 368.787C195.44 406.339 176.315 441.757 144.458 459.399C99.141 484.516 43.8579 470.122 -6.64387 462.108C-10.6187 461.474 -14.6128 460.898 -18.626 460.36C-79.2281 452.25 -142.595 455.555 -196.669 483.536C-254.314 513.362 -298.344 576.223 -291.374 641.486" stroke="#4700FB" stroke-miterlimit="10"/>
<path d="M795.854 -122.493C784.871 -75.0447 770.776 -28.3073 753.782 17.2962C746.217 37.5709 737.844 58.0569 723.635 74.3919C687.343 116.113 624.724 119.457 570.728 112.674C557.901 111.059 545.131 109.061 532.439 106.678C495.878 99.7785 459.931 89.6508 425.137 76.4674C378.706 58.8448 333.6 35.5338 283.847 28.2118C234.113 20.8707 179.464 36.1103 148.568 74.6994C136.105 90.2657 125.909 105.601 120.475 123.301C116.769 135.37 114.676 148.188 114.618 161.352C114.58 167.367 114.945 173.497 115.751 179.705C118.977 204.572 129.769 229.728 141.424 253.481C142.577 255.845 143.748 258.19 144.919 260.534C163.065 297.106 180.29 334.657 179.541 373.995C178.869 409.068 161.049 444.678 130.037 462.089C85.9108 486.861 32.3175 474.062 -16.4752 467.528C-20.3157 467.009 -24.1753 466.548 -28.0542 466.125C-86.5632 459.783 -147.223 464.568 -198.55 492.799C-253.277 522.894 -294.542 584.352 -286.804 647.694" stroke="#4700FB" stroke-miterlimit="10"/>
<path d="M784.102 -132.544C773.407 -86.1909 759.562 -40.6066 742.799 3.84389C735.348 23.5997 727.053 43.5476 713.227 59.5175C677.914 100.336 617.466 104.66 565.063 99.2404C552.62 97.9528 540.215 96.2809 527.868 94.2246C492.325 88.3056 457.3 79.254 423.351 67.2046C378.034 51.1194 333.907 29.4803 285.345 22.8694C236.802 16.2585 184.668 31.9401 152.85 67.5312C139.005 83.0207 126.331 96.7614 118.689 113.942C113.466 125.646 109.76 138.406 108.358 151.916C107.705 158.104 107.494 164.465 107.821 171.018C109.145 197.231 119.879 224.501 131.324 250.157C132.457 252.694 133.59 255.23 134.742 257.767C152.466 297.317 167.328 337.943 164.678 379.184C162.489 413.103 145.726 447.599 115.559 464.741C72.6421 489.148 20.7193 477.944 -26.3836 472.909C-30.0897 472.505 -33.8149 472.159 -37.5593 471.852C-93.9945 467.259 -151.928 473.543 -200.528 502.043C-252.355 532.407 -290.817 592.462 -282.31 653.901" stroke="#4700FB" stroke-miterlimit="10"/>
<path d="M772.351 -142.595C761.962 -97.3563 748.367 -52.9058 731.796 -9.62763C724.441 9.60926 716.261 28.9999 702.82 44.6431C668.486 84.5775 610.208 89.8815 559.399 85.7881C547.32 84.8272 535.28 83.482 523.298 81.7716C488.773 76.8327 454.689 68.8382 421.584 57.9417C377.381 43.3747 334.234 23.446 286.862 17.5462C239.509 11.6464 189.603 27.6547 157.17 60.3632C141.847 75.8142 126.773 87.9406 116.942 104.583C110.202 115.922 104.902 128.624 102.137 142.461C100.85 148.803 100.082 155.414 99.9284 162.313C99.3715 189.871 110.029 219.274 121.243 246.794C122.357 249.523 123.47 252.252 124.584 254.981C141.866 297.529 154.463 341.133 149.835 384.373C146.34 417.101 130.421 450.501 101.1 467.394C59.3926 491.435 9.1596 481.826 -36.2728 478.29C-39.8444 478.021 -43.4352 477.771 -47.0452 477.579C-101.407 474.754 -156.613 482.537 -202.487 511.268C-251.395 541.881 -287.073 600.553 -277.817 660.089" stroke="#4700FB" stroke-miterlimit="10"/>
<path d="M760.58 -152.646C750.479 -108.522 737.134 -65.2056 720.793 -23.0804C713.534 -4.36242 705.45 14.4901 692.393 29.7682C659.039 68.7993 602.93 75.1027 553.695 72.3545C542.001 71.7011 530.326 70.7018 518.69 69.3182C485.182 65.3593 452.02 58.4409 419.76 48.6784C376.67 35.6488 334.502 17.392 288.321 12.2224C242.178 7.03365 194.211 23.215 161.433 53.2138C144.573 68.6455 127.157 79.1192 115.117 95.2428C106.88 106.235 99.9475 118.842 95.8382 133.044C93.9372 139.54 92.5931 146.4 91.9594 153.645C89.5207 182.549 100.12 214.066 111.104 243.488C112.199 246.39 113.274 249.311 114.368 252.232C131.209 297.759 141.635 344.285 134.953 389.581C130.306 421.079 115.079 453.441 86.6212 470.064C46.1238 493.741 -2.43857 485.727 -46.162 483.69C-49.6184 483.536 -53.0556 483.421 -56.5119 483.344C-108.78 482.268 -161.279 491.55 -204.426 520.53C-250.416 551.413 -283.328 608.681 -273.305 666.315" stroke="#4700FB" stroke-miterlimit="10"/>
<path d="M748.828 -162.697C739.035 -119.688 725.92 -77.4856 709.79 -36.5328C702.628 -18.3336 694.659 -0.0191349 681.985 14.913C649.61 53.0409 595.691 60.3244 548.031 58.9215C536.701 58.5948 525.391 57.9029 514.12 56.8844C481.63 53.9057 449.408 48.0442 417.974 39.4347C375.998 27.9425 334.81 11.3769 289.819 6.91844C244.867 2.44072 198.647 18.6604 165.715 46.0841C147.223 61.4774 127.58 70.3175 113.332 85.9223C103.577 96.5496 95.0511 109.099 89.5784 123.627C87.0438 130.296 85.1427 137.387 84.0482 144.978C79.7277 175.227 90.2505 208.858 101.023 240.163C102.098 243.257 103.154 246.371 104.211 249.465C120.628 297.97 128.962 347.36 120.11 394.789C114.464 425.057 99.7748 456.381 72.162 472.755C32.8552 496.085 -14.0174 489.647 -56.051 489.109C-59.373 489.071 -62.6757 489.071 -65.9977 489.109C-116.192 489.801 -165.964 500.563 -206.366 529.793C-249.436 560.945 -279.565 616.811 -268.773 672.542" stroke="#4700FB" stroke-miterlimit="10"/>
<path d="M737.076 -172.728C727.571 -130.833 714.706 -89.7653 698.806 -49.9847C691.74 -32.3045 683.886 -14.5473 671.578 0.0388782C640.201 37.2635 588.432 45.5464 542.366 45.4695C531.421 45.4695 520.476 45.1043 509.55 44.4125C478.077 42.4138 446.797 37.6287 416.188 30.153C375.326 20.179 335.117 5.30456 291.317 1.57633C247.574 -2.19034 197.936 8.47544 170.016 38.897C147.435 50.4084 128.002 61.4778 111.546 76.5444C100.293 86.8067 90.1353 99.2982 83.3185 114.173C80.1693 120.995 77.6923 128.336 76.1177 136.273C69.9154 167.867 80.3614 203.631 90.9034 236.82C91.9403 240.106 92.9772 243.392 94.0141 246.679C109.99 298.163 116.365 350.396 105.228 399.959C98.6995 429.016 84.4322 459.265 57.6836 475.388C19.5864 498.353 -25.6155 493.51 -65.9593 494.471C-69.1469 494.548 -72.3153 494.663 -75.5028 494.817C-123.604 497.258 -170.688 509.519 -208.344 538.999C-248.495 570.4 -275.858 624.882 -264.299 678.711" stroke="#4700FB" stroke-miterlimit="10"/>
<path d="M725.325 -182.779C716.127 -141.999 703.492 -102.065 687.804 -63.4376C680.833 -46.2762 673.075 -29.0571 661.17 -14.8168C630.773 21.5046 581.174 30.7675 536.682 32.0551C526.102 32.3626 515.521 32.3433 504.96 31.9974C474.506 30.9789 444.147 27.2506 414.384 20.928C374.635 12.4915 335.405 -0.691832 292.795 -3.72822C250.243 -6.76462 202.199 3.40153 174.299 31.7668C149.912 42.644 128.424 52.6757 109.76 67.2042C96.9905 77.1205 85.2387 89.5352 77.0586 104.736C73.2758 111.712 70.2418 119.323 68.1872 127.586C60.1031 160.525 70.4915 198.403 80.803 233.476C81.8207 236.935 82.8384 240.413 83.837 243.911C99.3715 298.393 103.903 353.432 90.3657 405.166C83.0881 432.993 69.1089 462.204 43.2051 478.059C6.3177 500.659 -37.1944 497.411 -75.8485 499.871C-78.9016 500.063 -81.9355 500.294 -84.9887 500.582C-131.016 504.791 -175.373 518.531 -210.302 548.28C-247.554 579.951 -272.114 633.03 -259.805 684.956" stroke="#4700FB" stroke-miterlimit="10"/>
<path d="M713.573 -192.83C704.682 -153.165 692.277 -114.364 676.82 -76.8898C669.945 -60.2281 662.303 -43.5664 650.762 -29.6912C621.345 5.74615 573.915 15.9892 531.017 18.6028C520.821 19.237 510.606 19.5445 500.39 19.5253C470.953 19.4868 441.535 16.8348 412.598 11.6652C373.963 4.76609 335.712 -6.7453 294.293 -9.05142C252.931 -11.3768 206.462 -1.69107 178.58 24.6179C152.389 34.8802 128.828 43.8548 107.974 57.8645C93.7068 67.4157 80.3229 79.7535 70.7986 95.3198C66.4013 102.469 62.7913 110.31 60.2758 118.919C50.3098 153.203 60.6214 193.195 70.7218 230.17C71.7203 233.822 72.7188 237.492 73.6789 241.163C88.791 298.624 91.6138 356.507 75.5415 410.374C67.5918 437.01 53.8238 465.126 28.765 480.73C-6.9127 502.965 -48.7542 501.312 -85.7185 505.271C-88.6372 505.579 -91.5367 505.925 -94.4555 506.328C-138.39 512.286 -180.04 527.525 -212.242 557.524C-246.575 589.445 -268.351 641.121 -255.274 691.164" stroke="#4700FB" stroke-miterlimit="10"/>
<path d="M701.802 -202.881C693.199 -164.311 681.044 -126.644 665.798 -90.3614C659.019 -74.2185 651.492 -58.1141 640.336 -44.5656C611.897 -10.0315 566.638 1.21087 525.334 5.16971C515.502 6.11137 505.652 6.76477 495.801 7.09147C467.382 8.03314 438.905 6.43809 410.793 2.42159C373.291 -2.95936 336 -12.7604 295.772 -14.3555C255.62 -15.9697 210.706 -6.76448 182.863 17.469C154.866 27.1163 129.25 35.0532 106.169 48.5248C90.3849 57.7108 75.4072 69.9909 64.5195 85.8839C59.4886 93.1867 55.3217 101.277 52.3261 110.233C40.4784 145.862 50.7132 187.987 60.5831 226.826C61.5624 230.67 62.5225 234.513 63.4634 238.376C78.1339 298.816 79.4013 359.582 60.6407 415.563C52.1149 441.007 38.4622 468.047 14.2674 483.402C-20.2197 505.29 -60.3715 505.233 -95.6459 510.671C-98.4302 511.094 -101.195 511.575 -103.98 512.074C-145.84 519.8 -184.763 536.538 -214.219 566.768C-245.634 598.957 -264.644 649.231 -250.8 697.371" stroke="#4700FB" stroke-miterlimit="10"/>
<path d="M690.05 -212.932C681.755 -175.476 669.83 -138.944 654.814 -103.814C648.132 -88.1897 640.701 -72.6234 629.928 -59.4401C602.469 -25.8091 559.398 -13.5867 519.65 -8.28261C510.202 -7.01425 500.717 -6.03413 491.192 -5.38072C463.791 -3.43974 436.236 -3.99709 408.968 -6.86052C372.58 -10.7041 336.269 -18.8331 297.231 -19.6979C258.27 -20.6011 214.95 -11.8956 187.126 10.3008C157.324 19.3139 129.634 26.2131 104.364 39.1658C87.0629 48.006 70.4723 60.2092 58.2405 76.4481C52.595 83.9238 47.8521 92.245 44.3765 101.546C30.6469 138.521 40.824 182.76 50.4635 223.502C51.4237 227.518 52.3646 231.573 53.2671 235.628C67.4959 299.046 67.3615 362.753 45.759 420.771C36.7148 445.062 23.1196 470.968 -0.230234 486.073C-33.5076 507.597 -71.9696 509.134 -105.554 516.072C-108.204 516.629 -110.835 517.205 -113.466 517.84C-153.233 527.314 -189.449 545.552 -216.178 576.031C-244.674 608.49 -260.9 657.36 -246.306 703.598" stroke="#4700FB" stroke-miterlimit="10"/>
<path d="M678.298 -222.982C670.291 -186.642 658.616 -151.243 643.811 -117.266C637.225 -102.161 629.909 -87.1519 619.52 -74.2953C593.041 -41.5676 552.14 -28.3458 513.985 -21.7157C504.902 -20.1206 495.781 -18.833 486.622 -17.8145C460.238 -14.8934 433.624 -14.3746 407.183 -16.1042C371.908 -18.4103 336.576 -24.8482 298.729 -25.0019C260.977 -25.1941 219.212 -16.9689 191.408 3.17117C159.801 11.5693 130.037 17.4115 102.559 29.8453C83.76 38.3203 65.5564 50.4659 51.9612 67.0507C45.6821 74.6801 40.3823 83.2512 36.4458 92.8985C20.8344 131.219 30.9348 177.591 40.3631 220.196C41.304 224.405 42.2065 228.633 43.0898 232.88C56.8961 299.296 55.5136 366.001 30.9156 425.999C21.4105 449.156 7.81532 473.927 -14.6896 488.763C-46.7573 509.922 -83.5487 513.055 -115.444 521.491C-117.959 522.164 -120.455 522.856 -122.952 523.605C-160.645 534.847 -194.134 554.565 -218.137 585.294C-243.714 618.002 -257.175 665.489 -241.794 709.805" stroke="#4700FB" stroke-miterlimit="10"/>
<path d="M666.547 -233.033C658.847 -197.807 647.402 -163.542 632.828 -130.738C626.337 -116.151 619.117 -101.68 609.113 -89.1889C583.632 -57.3644 544.882 -43.1626 508.321 -35.168C499.622 -33.2654 490.866 -31.632 482.052 -30.2868C456.686 -26.3856 430.993 -24.8097 405.397 -25.3862C371.236 -26.1741 336.883 -30.9209 300.226 -30.3636C263.665 -29.8255 226.202 -17.0265 195.709 -4.0354C165.216 8.95575 130.479 8.5522 100.792 20.4287C80.4766 28.5386 60.6599 40.6073 45.7206 57.5381C38.827 65.3212 32.9511 74.1613 28.5346 84.1353C11.0414 123.801 21.065 172.287 30.2628 216.776C31.1653 221.177 32.0678 225.597 32.9127 230.017C46.2774 299.412 43.8388 369.229 16.0532 431.11C6.14486 453.172 -7.5079 476.752 -29.1488 491.339C-60.0067 512.132 -95.1275 516.86 -125.313 526.795C-127.694 527.583 -130.056 528.39 -132.418 529.255C-168.038 542.246 -198.8 563.463 -220.076 594.441C-242.754 627.419 -253.411 673.503 -237.281 715.916" stroke="#4700FB" stroke-miterlimit="10"/>
<path d="M654.795 -243.084C647.383 -208.973 636.207 -175.841 621.825 -144.19C615.43 -130.122 608.325 -116.19 598.705 -104.044C574.203 -73.1036 537.623 -57.9217 502.637 -48.6011C494.322 -46.3719 485.911 -44.4117 477.462 -42.7205C453.114 -37.8392 428.363 -35.1871 403.592 -34.6298C370.545 -33.8803 337.171 -36.936 301.705 -35.6676C266.354 -34.4184 229.946 -22.5035 199.991 -11.1651C166.387 1.55705 130.882 -0.249423 99.0065 11.1082C77.1929 18.8722 55.7632 30.864 39.4605 48.1407C31.9333 56.0968 25.5005 65.1675 20.604 75.4874C1.20975 116.498 11.1949 167.098 20.1623 213.49C21.0456 218.063 21.9097 222.676 22.7354 227.307C35.6585 299.681 32.3557 372.727 1.19056 436.357C-9.10182 457.362 -22.8314 479.731 -43.6274 494.068C-73.2948 514.515 -106.707 520.819 -135.222 532.253C-137.468 533.156 -139.696 534.098 -141.923 535.059C-175.45 549.818 -203.524 572.514 -222.035 603.762C-241.794 637.009 -249.667 681.69 -232.788 722.201" stroke="#4700FB" stroke-miterlimit="10"/>
<path d="M643.024 -253.135C635.919 -220.138 624.974 -188.121 610.822 -157.642C604.524 -144.094 597.534 -130.718 588.279 -118.919C564.756 -88.8813 530.346 -72.7 496.953 -62.0342C489.003 -59.4782 480.977 -57.1913 472.873 -55.1735C449.543 -49.3121 425.732 -45.6031 401.787 -43.8927C369.854 -41.6058 337.46 -42.9895 303.184 -40.9908C269.023 -39.0306 233.729 -28.0958 204.254 -18.314C168.576 -6.47589 131.286 -9.07025 97.1825 1.76852C73.8518 9.16732 50.8092 21.1014 33.1624 38.7048C25.0207 46.8147 18.0119 56.1353 12.6352 66.8011C-8.64079 109.157 1.26751 161.89 10.0237 210.146C10.8878 214.912 11.7327 219.697 12.52 224.521C25.0207 299.873 21.0266 376.302 -13.6909 441.546C-24.329 461.513 -38.1738 482.652 -58.1248 496.72C-86.5825 516.802 -118.324 524.701 -145.149 537.634C-147.261 538.653 -149.354 539.71 -151.447 540.805C-182.901 557.313 -208.248 581.508 -224.032 613.006C-240.872 646.502 -245.98 689.8 -228.314 728.408" stroke="#4700FB" stroke-miterlimit="10"/>
<path d="M631.272 -263.186C624.475 -231.304 613.76 -200.421 599.819 -171.114C593.617 -158.085 586.723 -145.247 577.871 -133.793C555.328 -104.659 523.087 -87.4981 491.288 -75.487C483.723 -72.6236 476.042 -69.9908 468.303 -67.627C445.99 -60.7855 423.101 -56.0003 400.02 -53.1561C369.201 -49.351 337.805 -49.0243 304.701 -46.3146C271.73 -43.6433 237.57 -33.7655 208.574 -25.4826C170.804 -14.6823 131.727 -17.8917 95.435 -7.59099C70.5874 -0.557321 45.951 11.3192 26.9408 29.2686C18.1654 37.5322 10.5998 47.1025 4.7623 58.1142C-18.3955 101.815 -8.56402 156.662 -0.0382481 206.821C0.806648 211.779 1.61316 216.756 2.38125 221.753C14.4402 300.103 9.98529 380.068 -28.5151 446.734C-39.4795 465.721 -53.4587 485.554 -72.5457 499.371C-99.7936 519.089 -129.864 528.582 -154.981 543.015C-156.959 544.148 -158.917 545.321 -160.876 546.531C-190.236 564.807 -212.875 590.482 -225.933 622.23C-239.854 655.995 -242.178 697.89 -223.763 734.596" stroke="#4700FB" stroke-miterlimit="10"/>
<path d="M619.52 -273.218C613.011 -242.431 602.546 -212.701 588.835 -184.547C582.748 -172.037 575.951 -159.737 567.463 -148.649C545.899 -120.418 515.848 -102.257 485.604 -88.9203C478.403 -85.7301 471.107 -82.7898 463.714 -80.0801C442.419 -72.2585 420.47 -66.4164 398.215 -62.3999C368.509 -57.0573 338.093 -55.0587 306.179 -51.6188C274.419 -48.2365 241.41 -39.4732 212.856 -32.6125C173.012 -23.0613 132.13 -26.6934 93.63 -16.9116C67.2846 -10.2431 41.016 1.55654 20.6617 19.8518C11.2718 28.2883 3.13015 38.0894 -3.18737 49.447C-28.227 94.4933 -18.4723 151.474 -10.1578 203.496C-9.33208 208.627 -8.54479 213.797 -7.81511 218.985C3.82142 300.315 -0.921546 384.027 -43.3968 451.942C-54.6685 469.968 -68.8013 488.494 -87.0434 502.043C-113.101 521.414 -141.462 532.483 -164.908 548.415C-166.752 549.664 -168.576 550.952 -170.381 552.278C-197.667 572.302 -217.58 599.495 -227.911 631.474C-238.913 665.508 -238.472 706 -219.289 740.803" stroke="#4700FB" stroke-miterlimit="10"/>
<path d="M607.769 -283.269C601.566 -253.596 591.332 -225.001 577.832 -198.019C571.841 -186.027 565.14 -174.285 557.056 -163.523C536.471 -136.196 508.589 -117.055 479.94 -102.353C473.123 -98.8557 466.172 -95.5695 459.144 -92.5139C438.866 -83.7122 417.859 -76.7938 396.429 -71.6435C367.837 -64.7636 338.4 -61.0738 307.677 -56.942C277.107 -52.8294 245.347 -45.2576 217.139 -39.7614C175.22 -31.6131 132.553 -35.5143 91.8442 -26.2706C63.9818 -19.948 36.1002 -8.22513 14.4018 10.416C4.37822 19.0063 -4.32032 29.0571 -11.1179 40.7607C-38.0394 87.1329 -28.3423 146.247 -20.2582 200.171C-19.4517 205.495 -18.7028 210.856 -17.9731 216.237C-6.77821 300.545 -11.5596 388.235 -58.2209 457.15C-69.819 474.273 -84.067 491.415 -101.483 504.733C-126.331 523.739 -153.022 536.423 -174.778 553.834C-176.487 555.218 -178.177 556.621 -179.848 558.062C-205.041 579.855 -222.246 608.528 -229.831 640.756C-237.934 675.04 -234.689 714.148 -214.738 747.049" stroke="#4700FB" stroke-miterlimit="10"/>
<path d="M596.017 -293.319C590.103 -264.762 580.118 -237.281 566.849 -211.471C560.954 -199.998 554.367 -188.794 546.648 -178.398C527.062 -151.954 501.331 -131.833 474.275 -115.806C467.823 -111.981 461.256 -108.368 454.574 -104.986C435.314 -95.2043 415.228 -87.229 394.644 -80.9256C367.165 -72.5275 338.708 -67.1465 309.175 -62.2844C279.814 -57.4608 249.36 -51.0997 221.44 -46.9487C177.505 -40.4147 132.975 -44.3543 90.0776 -35.6487C60.7174 -29.6912 31.2229 -18.0262 8.16102 0.94169C-2.47699 9.68573 -11.7516 20.0057 -19.0101 32.0359C-47.8134 79.7534 -38.193 140.981 -30.3393 196.789C-29.5713 202.304 -28.8224 207.839 -28.1311 213.412C-17.3779 300.699 -22.0056 392.598 -73.0642 462.3C-84.9696 478.559 -99.3712 494.298 -115.923 507.347C-139.561 525.988 -164.582 540.267 -184.629 559.177C-186.204 560.676 -187.778 562.194 -189.295 563.751C-212.415 587.292 -226.893 617.464 -231.751 649.942C-236.936 684.495 -230.906 722.181 -210.206 753.198" stroke="#4700FB" stroke-miterlimit="10"/>
<path d="M584.246 -303.37C578.639 -275.927 568.884 -249.58 555.827 -224.924C550.028 -213.97 543.557 -203.323 536.221 -193.253C517.614 -167.713 494.053 -146.592 468.572 -129.22C462.504 -125.069 456.283 -121.129 449.965 -117.401C431.723 -106.639 412.578 -97.6065 392.819 -90.15C366.455 -80.2145 338.976 -73.1424 310.634 -67.5693C282.464 -62.0346 253.392 -56.9227 225.703 -54.0592C179.771 -49.3125 133.379 -53.1368 88.2534 -44.9501C57.3763 -39.3577 26.2687 -27.7503 1.86273 -8.43649C-9.38976 0.480511 -19.2405 11.031 -26.9789 23.4072C-57.664 72.4699 -48.1206 135.831 -40.4781 193.522C-39.7292 199.211 -39.0187 204.937 -38.3466 210.703C-28.0159 300.987 -32.3171 397.345 -87.9651 467.547C-100.216 482.998 -114.733 497.257 -130.44 510.056C-152.869 528.332 -176.199 544.206 -194.576 564.615C-196.016 566.23 -197.456 567.863 -198.839 569.535C-219.865 594.845 -231.636 626.496 -233.767 659.243C-236.033 694.066 -227.239 730.349 -205.771 759.463" stroke="#4700FB" stroke-miterlimit="10"/>
<path d="M572.494 -313.421C557.401 -238.606 508.455 -172.824 445.395 -129.873C382.335 -86.9214 306.141 -65.6858 230.004 -61.2466C182.152 -58.46 133.801 -61.996 86.4868 -54.3282C39.1726 -46.6603 -8.85204 -25.5978 -34.8902 14.6824C-67.4571 65.0904 -57.9713 130.565 -50.5592 190.14C-38.3658 288.112 -38.5386 397.787 -102.808 472.697C-134.818 510.018 -180.097 534.963 -208.305 575.243C-247.401 631.07 -244.367 712.841 -201.239 765.613" stroke="#4700FB" stroke-miterlimit="10"/>
</g>
<g style="mix-blend-mode:multiply">
<path d="M172.705 970.089C202.564 928.733 234.901 889.183 269.484 851.689C284.865 835.028 301.11 818.443 321.502 808.526C373.598 783.159 435.871 807.777 484.951 838.602C530.153 866.987 571.957 900.752 609.19 938.976C646.096 976.854 679.22 1019.67 723.923 1047.9C768.645 1076.13 830.015 1086.57 873.22 1056.09C898.931 1037.95 914.408 1007.83 920.265 976.912C926.122 945.971 923.241 914.051 918.23 882.976C912.488 847.384 904.058 810.275 915.292 776.029C926.909 740.573 960.532 713.418 997.611 709.536C1050.36 704.021 1096.75 740.765 1141.21 769.726C1197.68 806.509 1263.31 833.894 1330.6 830.012C1397.86 826.149 1465.84 784.966 1486.02 720.606" stroke="#4700FB" stroke-miterlimit="10"/>
<path d="M179.675 983.907C208.978 943.223 240.911 904.442 275.11 867.851C290.318 851.593 306.39 835.431 326.418 825.668C366.647 806.066 412.962 816.021 454.478 835.335C465.788 840.581 476.752 846.539 487.141 852.765C531.805 879.574 573.243 911.764 610.342 948.373C647.095 984.656 680.065 1026.05 724.326 1053.24C749.135 1068.48 778.534 1078.92 807.471 1080.8C832.684 1082.44 857.704 1077.4 878.635 1063.08C882.379 1060.53 885.912 1057.72 889.234 1054.7C909.761 1036.04 922.224 1009.22 927.677 981.754C929.425 972.934 930.519 964.036 931.114 955.1C932.65 931.789 930.846 908.208 928.176 885.166C923.971 848.595 918.383 811.159 931.018 776.99C943.653 742.821 975.817 716.666 1012.01 712.688C1063.51 707.038 1108.97 741.668 1152.44 768.592C1155.86 770.706 1159.33 772.801 1162.81 774.838C1215.58 805.74 1275.31 827.167 1335.97 822.248C1400.67 817.001 1465.53 776.048 1484.27 713.149" stroke="#4700FB" stroke-miterlimit="10"/>
<path d="M186.626 997.705C215.391 957.694 246.883 919.701 280.736 883.994C295.771 868.12 311.69 852.4 331.353 842.792C370.852 823.497 416.246 832.491 457.089 850.536C468.226 855.437 479.037 861.029 489.31 866.89C533.437 892.142 574.53 922.737 611.475 957.732C648.074 992.42 680.929 1032.35 724.691 1058.55C750.441 1073.96 780.608 1084.84 810.448 1087.18C836.371 1089.2 862.313 1084.47 884.011 1070.06C887.89 1067.48 891.577 1064.64 895.053 1061.55C916.444 1042.54 929.213 1014.89 935.089 986.559C936.971 977.469 938.2 968.302 938.949 959.135C940.908 935.19 939.832 910.918 938.104 887.319C935.454 849.787 932.631 812.043 946.726 777.893C960.11 745.473 991.064 719.837 1026.38 715.763C1076.63 709.978 1121.14 742.495 1163.63 767.381C1166.97 769.342 1170.37 771.263 1173.77 773.147C1225.29 801.627 1283.09 820.634 1341.35 814.426C1403.45 807.815 1465.22 767.074 1482.52 705.635" stroke="#4700FB" stroke-miterlimit="10"/>
<path d="M193.597 1011.52C221.824 972.203 252.893 934.979 286.362 900.156C301.244 884.686 316.971 869.389 336.288 859.953C375.076 840.985 419.53 848.999 459.72 865.795C470.703 870.369 481.361 875.577 491.519 881.073C535.108 904.749 575.855 933.749 612.646 967.149C649.092 1000.24 681.87 1038.7 725.113 1063.91C751.824 1079.48 782.739 1090.81 813.463 1093.62C840.096 1096.02 866.979 1091.58 889.446 1077.07C893.478 1074.48 897.299 1071.6 900.909 1068.45C923.145 1049.07 936.222 1020.61 942.52 991.421C944.537 982.081 945.9 972.645 946.822 963.229C949.203 938.63 948.838 913.705 948.051 889.529C946.937 851.017 946.841 813.043 962.452 778.874C976.566 747.972 1006.33 723.104 1040.78 718.934C1089.78 713.015 1133.35 743.417 1174.87 766.267C1178.13 768.073 1181.43 769.841 1184.78 771.552C1235.07 797.592 1290.93 814.176 1346.75 806.681C1406.25 798.706 1464.92 758.176 1480.78 698.198" stroke="#4700FB" stroke-miterlimit="10"/>
<path d="M200.567 1025.34C228.237 986.694 258.903 950.238 292.008 916.299C306.717 901.213 322.271 886.377 341.223 877.076C379.282 858.435 422.813 865.468 462.35 881.016C473.161 885.243 483.684 890.086 493.708 895.217C536.759 917.337 577.16 944.741 613.798 976.527C650.071 1008.03 682.792 1044.96 725.497 1069.23C753.168 1084.95 784.832 1096.73 816.439 1100.02C843.783 1102.83 871.588 1098.67 894.822 1084.05C898.989 1081.44 902.964 1078.52 906.708 1075.31C929.809 1055.57 943.193 1026.28 949.894 996.226C952.026 986.617 953.542 976.931 954.618 967.264C957.441 942.032 957.767 916.434 957.94 891.681C958.362 852.189 960.935 814.023 978.102 779.796C992.869 750.393 1021.54 726.294 1055.08 722.047C1102.84 715.993 1145.47 744.263 1186 765.095C1189.19 766.728 1192.42 768.342 1195.66 769.899C1244.71 793.518 1298.64 807.681 1352.05 798.898C1408.96 789.559 1464.53 749.24 1478.95 690.722" stroke="#4700FB" stroke-miterlimit="10"/>
<path d="M207.537 1039.16C234.67 1001.18 264.914 965.516 297.653 932.461C312.189 917.779 327.57 903.366 346.177 894.237C383.526 875.923 426.116 881.976 465 896.274C475.638 900.156 486.008 904.634 495.916 909.419C538.43 929.963 578.466 955.792 614.95 985.963C651.07 1015.85 683.733 1051.26 725.881 1074.6C754.512 1090.45 786.925 1102.71 819.415 1106.46C847.47 1109.65 876.196 1105.8 900.218 1091.08C904.539 1088.45 908.648 1085.49 912.546 1082.22C936.51 1062.14 950.182 1032.03 957.325 1001.11C959.591 991.248 961.243 981.274 962.491 971.377C965.736 945.51 966.735 919.22 967.906 893.911C969.788 853.438 975.049 815.08 993.848 780.795C1009.17 752.891 1036.82 729.58 1069.49 725.218C1115.99 719.03 1157.68 745.185 1197.24 763.98C1200.35 765.46 1203.5 766.901 1206.67 768.304C1254.46 789.501 1306.48 801.224 1357.44 791.154C1411.78 780.449 1464.22 740.323 1477.22 683.285" stroke="#4700FB" stroke-miterlimit="10"/>
<path d="M214.508 1052.96C241.103 1015.65 270.924 980.755 303.28 948.604C317.643 934.325 332.851 920.335 351.112 911.36C387.731 893.372 429.399 898.446 467.631 911.476C478.115 915.012 488.331 919.124 498.124 923.544C540.1 942.531 579.791 966.765 616.122 995.303C652.087 1023.59 684.712 1057.43 726.304 1079.88C755.914 1095.87 789.076 1108.61 822.43 1112.82C851.195 1116.41 880.843 1112.86 905.652 1098.02C910.126 1095.35 914.37 1092.37 918.402 1089.05C943.212 1068.6 957.21 1037.68 964.757 1005.89C967.157 995.764 968.943 985.54 970.344 975.394C974.012 948.873 975.721 921.93 977.852 896.024C981.27 854.553 989.067 816.04 1009.57 781.679C1025.36 755.236 1052.09 732.732 1083.89 728.293C1129.15 721.97 1169.89 746.011 1208.47 762.75C1211.5 764.076 1214.58 765.344 1217.65 766.593C1264.21 785.35 1314.29 794.67 1362.84 783.313C1414.59 771.225 1463.94 731.329 1475.5 675.751" stroke="#4700FB" stroke-miterlimit="10"/>
<path d="M221.459 1066.77C247.497 1030.14 276.915 996.033 308.906 964.766C323.115 950.872 338.131 937.323 356.047 928.502C391.955 910.841 432.702 914.935 470.262 926.715C480.573 929.905 490.635 933.672 500.313 937.708C541.752 955.119 581.097 977.757 617.274 1004.7C653.086 1031.39 685.691 1063.66 726.688 1085.22C757.296 1101.33 791.169 1114.57 825.406 1119.24C854.882 1123.22 885.471 1119.95 911.029 1105.04C915.637 1102.35 920.035 1099.33 924.202 1095.95C949.875 1075.15 964.161 1043.39 972.13 1010.75C974.665 1000.36 976.585 989.884 978.16 979.487C982.269 952.332 984.669 924.697 987.761 898.235C992.715 855.783 1002.99 817.097 1025.26 782.659C1041.43 757.657 1067.33 735.999 1098.23 731.464C1142.22 725.006 1182.05 746.934 1219.65 761.635C1222.6 762.788 1225.6 763.922 1228.59 764.998C1273.91 781.333 1322.07 788.213 1368.18 775.568C1417.33 762.116 1463.59 722.431 1473.69 668.314" stroke="#4700FB" stroke-miterlimit="10"/>
<path d="M228.429 1080.59C253.93 1044.63 282.925 1011.29 314.532 980.909C328.569 967.418 343.412 954.292 360.963 945.644C396.161 928.31 435.947 931.5 472.854 941.955C482.993 944.818 492.92 948.201 502.483 951.871C543.384 967.726 582.383 988.769 618.407 1014.1C654.065 1039.2 686.67 1069.85 727.072 1090.56C758.659 1106.78 793.262 1120.51 828.383 1125.66C858.568 1130.04 890.079 1127.06 916.425 1112.03C921.187 1109.32 925.719 1106.25 930.039 1102.83C956.557 1081.67 971.17 1049.09 979.562 1015.6C982.231 1004.95 984.285 994.208 986.013 983.561C990.545 955.753 993.656 927.465 997.688 900.425C1004.18 856.993 1016.85 818.135 1040.97 783.601C1057.45 760.021 1082.58 739.208 1112.59 734.577C1155.34 727.985 1194.22 747.799 1230.84 760.463C1233.72 761.462 1236.62 762.423 1239.54 763.346C1283.61 777.259 1329.83 781.718 1373.53 767.785C1420.1 752.968 1463.25 713.495 1471.92 660.839" stroke="#4700FB" stroke-miterlimit="10"/>
<path d="M235.4 1094.41C260.363 1059.13 288.916 1026.57 320.177 997.071C334.041 983.965 348.712 971.281 365.917 962.787C400.385 945.779 439.25 947.989 475.504 957.194C485.47 959.712 495.244 962.729 504.691 966.035C545.054 980.313 583.689 999.781 619.578 1023.5C655.083 1046.98 687.688 1076.02 727.475 1095.91C760.08 1112.22 795.374 1126.46 831.397 1132.08C862.294 1136.84 894.726 1134.17 921.859 1119.05C926.755 1116.32 931.46 1113.2 935.896 1109.73C963.278 1088.2 978.179 1054.8 986.993 1020.46C989.777 1009.54 991.985 998.532 993.886 987.655C998.84 959.212 1002.66 930.232 1007.65 902.635C1015.68 858.223 1030.68 819.154 1056.72 784.581C1073.42 762.385 1097.89 742.475 1127.02 737.748C1168.51 731.022 1206.47 748.702 1242.09 759.348C1244.9 760.194 1247.72 760.982 1250.56 761.751C1293.4 773.243 1337.68 775.261 1378.95 760.04C1422.94 743.859 1462.98 704.597 1470.22 653.401" stroke="#4700FB" stroke-miterlimit="10"/>
<path d="M242.37 1108.21C266.776 1073.6 294.927 1041.81 325.823 1013.21C339.533 1000.51 354.012 988.25 370.871 979.929C404.629 963.229 442.553 964.497 478.154 972.415C487.947 974.605 497.586 977.238 506.919 980.179C546.744 992.901 585.033 1010.77 620.768 1032.87C656.101 1054.76 688.744 1082.15 727.917 1101.23C761.521 1117.62 797.525 1132.4 834.431 1138.47C866.038 1143.64 899.392 1141.24 927.293 1126.02C932.343 1123.27 937.182 1120.12 941.752 1116.59C969.999 1094.72 985.207 1060.49 994.424 1025.26C997.343 1014.1 999.685 1002.82 1001.76 991.69C1007.16 962.594 1011.69 932.961 1017.62 904.788C1027.2 859.395 1044.43 820.076 1072.46 785.504C1089.36 764.652 1113.17 745.665 1141.42 740.861C1181.66 734 1218.69 749.566 1253.31 758.176C1256.03 758.849 1258.78 759.502 1261.53 760.098C1303.12 769.149 1345.48 768.765 1384.32 752.257C1425.72 734.692 1462.65 695.661 1468.45 645.926" stroke="#4700FB" stroke-miterlimit="10"/>
<path d="M249.341 1122.02C273.209 1088.09 300.937 1057.09 331.449 1029.36C344.987 1017.06 359.292 1005.24 375.787 997.052C408.815 980.678 445.817 980.966 480.765 987.635C490.405 989.48 499.891 991.748 509.089 994.342C548.376 1005.49 586.32 1021.77 621.882 1042.25C657.061 1062.55 689.724 1088.24 728.263 1106.55C762.884 1123 799.599 1138.32 837.369 1144.87C869.687 1150.43 903.982 1148.33 932.651 1133C937.854 1130.23 942.828 1127.04 947.551 1123.43C976.643 1101.19 992.158 1066.16 1001.82 1030.07C1004.87 1018.63 1007.35 1007.1 1009.57 995.726C1015.39 965.996 1020.64 935.67 1027.53 906.94C1038.65 860.568 1058.06 820.941 1088.13 786.426C1105.16 766.882 1128.38 748.875 1155.74 743.955C1194.74 736.96 1230.82 750.412 1264.46 756.984C1267.11 757.503 1269.78 757.984 1272.45 758.426C1312.8 765.056 1353.24 762.231 1389.64 744.435C1428.45 725.506 1462.29 686.686 1466.64 638.411" stroke="#4700FB" stroke-miterlimit="10"/>
<path d="M256.292 1135.84C279.603 1102.58 306.928 1072.37 337.075 1045.52C350.44 1033.6 364.573 1022.23 380.722 1014.19C413.039 998.147 449.12 997.455 483.396 1002.87C492.863 1004.37 502.195 1006.28 511.297 1008.51C550.047 1018.1 587.645 1032.78 623.054 1051.65C658.078 1070.35 690.78 1094.37 728.666 1111.9C764.324 1128.39 801.711 1144.28 840.365 1151.29C873.393 1157.25 908.609 1155.44 938.046 1140.01C943.385 1137.23 948.512 1134 953.37 1130.33C983.325 1107.73 999.148 1071.87 1009.21 1034.93C1012.4 1023.25 1015.01 1011.43 1017.41 999.819C1023.65 969.455 1029.66 938.476 1037.46 909.15C1050.21 861.817 1071.62 821.787 1103.84 787.406C1120.95 769.149 1143.64 752.122 1170.12 747.126C1207.88 739.996 1243.02 751.334 1275.68 755.87C1278.25 756.235 1280.84 756.542 1283.42 756.831C1322.51 761.039 1361.03 755.793 1395.02 736.71C1431.24 716.416 1461.96 677.808 1464.9 630.993" stroke="#4700FB" stroke-miterlimit="10"/>
<path d="M263.262 1149.64C286.036 1117.05 312.938 1087.61 342.702 1061.66C355.913 1050.15 369.853 1039.2 385.657 1031.34C417.244 1015.62 452.404 1013.94 486.027 1018.1C495.321 1019.25 504.518 1020.8 513.486 1022.65C551.698 1030.68 588.95 1043.77 624.206 1061.03C659.077 1078.13 691.817 1100.44 729.069 1117.22C766.321 1134 803.823 1150.22 843.36 1157.69C877.099 1164.03 913.237 1162.54 943.461 1146.99C948.953 1144.18 954.214 1140.92 959.207 1137.19C990.027 1114.24 1006.14 1077.55 1016.62 1039.75C1019.92 1027.8 1022.69 1015.73 1025.24 1003.87C1031.91 972.857 1038.63 941.205 1047.36 911.322C1061.67 863.009 1085.08 822.517 1119.53 788.348C1136.69 771.321 1158.87 755.332 1184.47 750.258C1220.97 742.994 1255.17 752.219 1286.85 754.717C1289.35 754.909 1291.87 755.082 1294.36 755.197C1332.23 756.965 1368.81 749.298 1400.38 728.927C1434.02 707.269 1461.63 668.872 1463.11 623.518" stroke="#4700FB" stroke-miterlimit="10"/>
<path d="M270.233 1163.46C292.469 1131.54 318.948 1102.88 348.347 1077.82C361.385 1066.7 375.153 1056.18 390.592 1048.48C421.469 1033.08 455.687 1030.43 488.638 1033.33C497.778 1034.14 506.804 1035.33 515.656 1036.81C553.33 1043.27 590.218 1054.78 625.339 1070.42C660.056 1085.91 692.854 1106.52 729.434 1122.56C767.147 1139.09 805.897 1156.15 846.317 1164.11C880.747 1170.84 917.826 1169.63 948.838 1154C954.464 1151.16 959.879 1147.87 965.025 1144.09C996.69 1120.78 1013.13 1083.26 1024.03 1044.62C1027.47 1032.41 1030.37 1020.07 1033.1 1007.97C1040.2 976.316 1047.63 943.992 1057.31 913.532C1073.15 864.239 1098.5 823.17 1135.25 789.328C1152.44 773.493 1174.14 758.599 1198.87 753.429C1234.12 746.031 1267.38 753.122 1298.09 753.602C1300.51 753.641 1302.93 753.641 1305.35 753.602C1341.96 752.949 1376.61 742.86 1405.75 721.201C1436.8 698.179 1461.33 659.993 1461.36 616.1" stroke="#4700FB" stroke-miterlimit="10"/>
<path d="M277.203 1177.28C298.882 1146.05 324.959 1118.14 353.992 1093.97C366.858 1083.24 380.453 1073.15 395.546 1065.6C425.693 1050.53 459.009 1046.88 491.288 1048.56C500.256 1049.02 509.146 1049.84 517.883 1050.96C555.02 1055.86 591.562 1065.75 626.529 1079.8C661.093 1093.7 693.929 1112.57 729.875 1127.89C768.645 1144.41 808.048 1162.09 849.351 1170.51C884.491 1177.64 922.512 1176.72 954.272 1160.98C960.052 1158.12 965.602 1154.79 970.882 1150.95C1003.41 1127.29 1020.14 1088.95 1031.46 1049.42C1035.04 1036.95 1038.07 1024.36 1040.95 1012C1048.48 979.698 1056.62 946.701 1067.26 915.684C1084.64 865.411 1111.85 823.67 1150.98 790.231C1168.18 775.53 1189.42 761.77 1213.25 756.504C1247.26 748.971 1279.58 753.948 1309.3 752.391C1311.64 752.276 1313.99 752.103 1316.33 751.911C1351.7 748.836 1384.42 736.306 1411.15 713.36C1439.61 688.954 1461.02 650.999 1459.64 608.566" stroke="#4700FB" stroke-miterlimit="10"/>
<path d="M284.173 1191.09C305.315 1160.54 330.95 1133.42 359.619 1110.13C372.331 1099.81 385.734 1090.14 400.481 1082.76C429.918 1068.02 462.293 1063.39 493.919 1063.81C502.713 1063.93 511.45 1064.39 520.072 1065.14C556.672 1068.46 592.868 1076.79 627.662 1089.22C662.053 1101.52 694.966 1118.64 730.24 1133.25C770.066 1149.74 810.121 1168.07 852.328 1176.95C888.178 1184.46 927.12 1183.85 959.668 1168.01C965.601 1165.13 971.285 1161.77 976.7 1157.87C1010.07 1133.84 1027.13 1094.7 1038.86 1054.3C1042.56 1041.56 1045.73 1028.7 1048.79 1016.12C1056.74 983.177 1065.59 949.507 1077.19 917.913C1096.1 866.679 1125.09 824.093 1166.69 791.231C1183.87 777.644 1204.67 765.056 1227.62 759.694C1260.36 752.027 1291.75 754.89 1320.5 751.296C1322.76 751.008 1325.03 750.681 1327.27 750.335C1361.42 744.839 1392.2 729.888 1416.49 705.654C1442.35 679.883 1460.67 642.14 1457.85 601.168" stroke="#4700FB" stroke-miterlimit="10"/>
<path d="M291.144 1204.89C311.748 1175.01 336.96 1148.66 365.264 1126.27C377.803 1116.34 391.034 1107.11 405.435 1099.89C434.162 1085.47 465.596 1079.84 496.569 1079.02C505.21 1078.78 513.793 1078.88 522.3 1079.28C558.362 1081.05 594.212 1087.78 628.853 1098.58C663.09 1109.28 696.06 1124.64 730.663 1138.53C771.544 1154.96 812.272 1173.95 855.343 1183.31C891.904 1191.23 931.767 1190.9 965.102 1174.95C971.17 1172.05 977.008 1168.65 982.576 1164.69C1016.81 1140.3 1034.15 1100.33 1046.33 1059.09C1050.15 1046.1 1053.47 1032.97 1056.68 1020.13C1065.07 986.54 1074.63 952.217 1087.15 920.047C1107.62 867.832 1138.33 824.266 1182.41 792.134C1199.6 779.604 1219.93 768.227 1242.02 762.788C1273.51 754.986 1303.96 755.735 1331.73 750.105C1333.92 749.663 1336.11 749.182 1338.28 748.663C1371.17 740.726 1400.03 723.354 1421.9 697.833C1445.2 670.697 1460.38 633.165 1456.12 593.654" stroke="#4700FB" stroke-miterlimit="10"/>
<path d="M298.095 1218.71C318.142 1189.5 342.951 1163.94 370.871 1142.41C383.237 1132.88 396.295 1124.1 410.332 1117.03C438.329 1102.92 468.841 1096.27 499.161 1094.25C507.629 1093.66 516.078 1093.41 524.45 1093.45C559.974 1093.64 595.46 1098.79 629.966 1107.98C664.05 1117.07 697.078 1130.65 731.028 1143.87C772.984 1160.23 814.346 1179.91 858.3 1189.73C895.571 1198.03 936.357 1197.99 970.46 1181.95C976.681 1179.02 982.672 1175.58 988.356 1171.57C1023.46 1146.83 1041.1 1106.04 1053.68 1063.93C1057.64 1050.67 1061.09 1037.29 1064.47 1024.21C1073.29 989.98 1083.56 954.965 1097.04 922.237C1119.05 869.043 1151.4 824.323 1198.08 793.095C1215.27 781.603 1235.16 771.475 1256.34 765.921C1286.59 757.984 1316.1 756.62 1342.89 748.952C1345 748.356 1347.11 747.703 1349.2 747.011C1380.85 736.652 1407.79 716.858 1427.22 690.049C1447.92 661.55 1460.02 624.229 1454.32 586.178" stroke="#4700FB" stroke-miterlimit="10"/>
<path d="M305.065 1232.53C324.575 1203.99 348.962 1179.2 376.517 1158.58C388.729 1149.43 401.595 1141.09 415.286 1134.17C442.572 1120.39 472.144 1112.76 501.811 1109.49C510.106 1108.55 518.402 1107.96 526.678 1107.61C561.664 1106.25 596.804 1109.78 631.157 1117.37C665.087 1124.87 698.173 1136.67 731.45 1149.22C774.482 1165.46 816.477 1185.87 861.314 1196.15C899.296 1204.85 941.003 1205.1 975.894 1188.96C982.25 1186.02 988.395 1182.52 994.213 1178.47C1030.16 1153.37 1048.11 1111.74 1061.11 1068.79C1065.2 1055.28 1068.79 1041.62 1072.33 1028.3C1081.56 993.439 1092.55 957.752 1106.99 924.447C1130.53 870.273 1164.5 824.227 1213.81 794.075C1231 783.563 1250.43 774.723 1270.72 769.092C1299.72 761.04 1328.31 757.523 1354.1 747.837C1356.14 747.068 1358.15 746.261 1360.17 745.416C1390.58 732.636 1415.59 710.401 1432.6 682.305C1450.71 652.441 1459.69 615.331 1452.57 578.741" stroke="#4700FB" stroke-miterlimit="10"/>
<path d="M312.036 1246.34C330.988 1218.48 354.972 1194.47 382.162 1174.74C394.202 1165.99 406.894 1158.08 420.24 1151.31C446.797 1137.86 475.466 1129.25 504.442 1124.73C512.564 1123.45 520.725 1122.49 528.867 1121.77C563.316 1118.83 598.11 1120.79 632.309 1126.77C666.086 1132.67 699.248 1142.66 731.853 1154.56C775.98 1170.65 818.59 1191.82 864.31 1202.57C903.002 1211.66 945.65 1212.21 981.29 1195.95C987.799 1193 994.078 1189.46 1000.05 1185.33C1036.86 1159.88 1055.12 1117.43 1068.54 1073.62C1072.77 1059.84 1076.49 1045.92 1080.2 1032.35C1089.88 996.84 1101.55 960.5 1116.95 926.619C1142.05 871.464 1177.59 823.9 1229.55 795.016C1246.78 785.446 1265.71 777.951 1285.15 772.224C1312.89 764.037 1340.54 758.407 1365.35 746.684C1367.31 745.761 1369.25 744.801 1371.19 743.782C1400.36 728.581 1423.42 703.925 1438.01 674.541C1453.53 643.293 1459.42 606.414 1450.84 571.284" stroke="#4700FB" stroke-miterlimit="10"/>
<path d="M319.006 1260.14C361.808 1196.95 432.337 1155.19 507.072 1139.95C581.807 1124.71 660.287 1134.55 732.237 1159.88C777.458 1175.8 820.683 1197.74 867.286 1208.97C913.89 1220.19 966.331 1219.3 1005.87 1192.21C1055.37 1158.29 1071.87 1094.24 1088.03 1036.41C1114.59 941.321 1157.07 840.216 1245.24 795.958C1289.16 773.915 1340.56 768.381 1382.12 742.129C1439.72 705.731 1468.49 629.129 1449.06 563.789" stroke="#4700FB" stroke-miterlimit="10"/>
</g>
<g style="mix-blend-mode:multiply">
<path d="M-507.379 -119.418C-470.569 -154.702 -431.627 -187.775 -390.86 -218.408C-372.734 -232.015 -353.762 -245.409 -331.929 -251.482C-276.127 -267.029 -219.289 -231.573 -176.583 -192.407C-137.238 -156.335 -102.213 -115.575 -72.4689 -71.2395C-42.9936 -27.3079 -18.1267 20.7747 20.7577 56.6157C59.6614 92.4567 118.132 113.808 166.138 91.6111C194.691 78.4086 215.353 51.5807 226.682 22.2161C238.011 -7.14854 240.949 -39.0691 241.621 -70.5477C242.389 -106.581 240.796 -144.613 258.001 -176.283C275.82 -209.049 313.783 -229.708 350.959 -226.826C403.841 -222.732 442.841 -178.205 481.342 -141.711C530.269 -95.3385 589.892 -56.5572 656.754 -48.2167C723.616 -39.8762 797.909 -68.1262 829.343 -127.759" stroke="#4700FB" stroke-miterlimit="10"/>
<path d="M-503.021 -104.582C-466.863 -139.308 -428.478 -171.69 -388.23 -201.497C-370.333 -214.757 -351.611 -227.729 -330.162 -233.725C-287.073 -245.755 -243.311 -227.594 -205.943 -201.112C-195.766 -193.906 -186.05 -186.084 -176.967 -178.071C-137.872 -143.632 -102.905 -104.505 -73.0067 -61.7843C-43.3969 -19.467 -18.4149 27.2127 20.2007 61.9391C41.8608 81.4066 68.8782 96.9921 97.0287 104.064C121.55 110.214 147.05 109.791 170.208 99.4904C174.337 97.6455 178.331 95.5316 182.152 93.1486C205.713 78.5047 222.803 54.3673 233.115 28.3273C236.437 19.9676 239.106 11.3966 241.295 2.72942C246.998 -19.909 249.494 -43.4507 251.011 -66.5888C253.469 -103.314 254.717 -141.153 273.305 -172.478C291.892 -203.803 328.242 -223.732 364.554 -221.118C416.227 -217.39 454.689 -175.111 492.594 -140.788C495.589 -138.079 498.604 -135.407 501.676 -132.774C548.011 -92.8593 602.891 -60.9964 663.455 -54.8852C728.032 -48.3704 799.214 -76.9471 828.978 -135.426" stroke="#4700FB" stroke-miterlimit="10"/>
<path d="M-498.662 -89.727C-463.157 -123.877 -425.328 -155.567 -385.599 -184.585C-367.952 -197.481 -349.461 -210.068 -328.396 -215.968C-286.074 -227.806 -243.042 -210.779 -206.116 -185.642C-196.035 -178.801 -186.415 -171.364 -177.371 -163.734C-138.525 -130.949 -103.615 -93.4361 -73.5827 -52.3295C-43.8385 -11.6072 -18.7029 33.612 19.6055 67.2621C42.1681 87.0756 69.8576 103.218 98.7953 110.905C123.931 117.574 150.315 117.593 174.241 107.331C178.523 105.505 182.651 103.372 186.626 100.951C211.09 86.1147 228.621 61.2278 239.509 34.4191C243.004 25.8288 245.865 17.0271 248.246 8.14855C254.487 -15.0472 257.789 -39.1077 260.343 -62.6494C264.491 -100.047 268.523 -137.675 288.532 -168.712C308.541 -199.748 342.606 -217.813 378.072 -215.449C428.535 -212.067 466.46 -172.056 503.769 -139.904C506.707 -137.368 509.684 -134.869 512.699 -132.39C558.246 -95.0888 611.667 -65.9548 670.08 -61.5347C732.352 -56.8264 800.443 -85.7682 828.536 -143.056" stroke="#4700FB" stroke-miterlimit="10"/>
<path d="M-494.303 -74.891C-459.451 -108.484 -422.179 -139.482 -382.988 -167.693C-365.571 -180.223 -347.348 -192.426 -326.648 -198.23C-285.076 -209.876 -242.792 -193.983 -206.289 -170.211C-196.304 -163.734 -186.76 -156.681 -177.774 -149.436C-139.177 -118.285 -104.306 -82.4051 -74.1396 -42.9128C-44.261 -3.78561 -18.9525 39.9538 19.0487 72.547C42.5137 92.6871 70.8754 109.406 100.581 117.708C126.35 124.896 153.579 125.376 178.292 115.153C182.728 113.327 187.01 111.174 191.119 108.734C216.486 93.6864 234.478 68.05 245.942 40.4727C249.609 31.6518 252.643 22.6195 255.255 13.5295C262.033 -10.2235 266.162 -34.8222 269.752 -58.7482C275.59 -96.8376 282.349 -134.197 303.856 -164.983C323.307 -192.83 357.065 -211.932 391.686 -209.799C440.959 -206.782 478.327 -169.019 515.041 -139.04C517.941 -136.676 520.86 -134.351 523.817 -132.044C568.577 -97.3565 620.557 -70.9514 676.801 -68.2417C736.769 -65.3398 801.788 -94.6276 828.191 -150.743" stroke="#4700FB" stroke-miterlimit="10"/>
<path d="M-489.925 -60.0548C-455.745 -93.0708 -419.011 -123.396 -380.338 -150.801C-363.152 -162.985 -345.178 -174.784 -324.863 -180.492C-284.058 -191.946 -242.524 -177.187 -206.423 -154.76C-196.553 -148.648 -187.087 -141.98 -178.139 -135.119C-139.792 -105.601 -104.978 -71.3356 -74.6771 -33.4768C-44.6641 4.03611 -19.1444 46.2958 18.4919 77.8704C42.8787 98.318 71.8932 115.633 102.386 124.569C128.77 132.256 156.863 133.198 182.363 123.013C186.934 121.187 191.369 119.035 195.632 116.556C221.901 101.316 240.354 74.9301 252.375 46.584C256.215 37.5133 259.441 28.2504 262.245 18.949C269.561 -5.36134 274.496 -30.4788 279.142 -54.8084C286.67 -93.5896 296.079 -130.661 319.141 -161.217C338.957 -187.468 371.505 -205.994 405.262 -204.13C453.326 -201.478 490.155 -165.963 526.275 -138.175C529.117 -135.984 531.997 -133.831 534.916 -131.698C578.908 -99.624 629.41 -75.9478 683.502 -74.9485C741.166 -73.8723 803.094 -103.506 827.826 -158.43" stroke="#4700FB" stroke-miterlimit="10"/>
<path d="M-485.566 -45.1996C-452.039 -77.6583 -415.862 -107.292 -377.707 -133.889C-360.751 -145.708 -343.047 -157.123 -323.096 -162.735C-283.059 -174.016 -242.255 -160.371 -206.596 -139.289C-196.822 -133.563 -187.432 -127.259 -178.542 -120.783C-140.425 -92.8979 -105.689 -60.2663 -75.2341 -24.0218C-45.0866 11.8961 -19.3365 52.6183 17.9158 83.1937C43.2243 103.968 72.8916 121.879 104.172 131.411C131.189 139.617 160.146 141.02 186.415 130.873C191.139 129.047 195.709 126.895 200.125 124.377C227.316 108.945 246.191 81.7908 258.788 52.676C262.801 43.3746 266.219 33.8811 269.215 24.3683C277.069 -0.499355 282.772 -26.1742 288.513 -50.8689C297.653 -90.342 309.731 -127.125 334.425 -157.45C354.511 -182.145 385.926 -200.075 418.838 -198.461C465.692 -196.154 501.984 -162.889 537.508 -137.291C540.311 -135.273 543.134 -133.293 545.995 -131.333C589.2 -101.853 638.243 -80.9253 690.184 -81.6364C745.564 -82.3666 804.38 -112.346 827.442 -166.117" stroke="#4700FB" stroke-miterlimit="10"/>
<path d="M-481.207 -30.3637C-448.333 -62.265 -412.713 -91.1877 -375.076 -116.978C-358.37 -128.432 -340.896 -139.443 -321.31 -144.978C-282.042 -156.067 -241.967 -143.537 -206.731 -123.819C-197.072 -118.458 -187.759 -112.558 -178.907 -106.446C-141.04 -80.1952 -106.361 -49.197 -75.7717 -14.5668C-45.4899 19.756 -19.4901 58.9408 17.3589 88.5168C43.6083 109.579 73.9093 128.105 105.977 138.271C133.628 146.996 163.43 148.841 190.486 138.733C195.363 136.926 200.087 134.735 204.638 132.199C232.731 116.575 252.067 88.6705 265.221 58.7678C269.407 49.2359 273.017 39.5117 276.224 29.7876C284.615 4.36261 291.144 -21.8311 297.903 -46.9101C308.733 -87.0751 323.346 -123.55 349.71 -153.664C369.988 -176.822 400.347 -194.137 432.414 -192.772C478.058 -190.831 513.812 -159.814 548.741 -136.388C551.487 -134.543 554.271 -132.717 557.075 -130.949C599.493 -104.083 647.076 -85.9028 696.867 -88.305C749.942 -90.8417 805.666 -121.186 827.058 -173.766" stroke="#4700FB" stroke-miterlimit="10"/>
<path d="M-476.848 -15.5276C-444.627 -46.8524 -409.563 -75.1024 -372.465 -100.085C-355.989 -111.193 -338.784 -121.801 -319.563 -127.24C-281.062 -138.136 -241.736 -126.74 -206.903 -108.387C-197.341 -103.391 -188.105 -97.8754 -179.31 -92.1485C-141.693 -67.5307 -107.071 -38.1661 -76.3478 -5.13091C-45.9315 27.5776 -19.6629 65.2058 16.7636 93.8209C43.9539 115.191 74.8887 134.313 107.744 145.094C136.009 154.337 166.694 156.643 194.518 146.573C199.53 144.767 204.407 142.576 209.112 140.001C238.107 124.166 257.886 95.5121 271.615 64.8599C275.974 55.0973 279.757 45.1233 283.175 35.1878C292.104 9.2055 299.439 -17.5263 307.254 -42.9897C319.774 -83.8465 336.845 -120.033 364.976 -149.917C385.369 -171.594 414.767 -188.237 445.971 -187.103C490.405 -185.508 525.641 -156.758 559.955 -135.504C562.663 -133.832 565.389 -132.179 568.135 -130.584C609.766 -106.331 655.889 -90.8802 703.53 -94.9927C754.301 -99.3552 806.953 -130.027 826.655 -181.434" stroke="#4700FB" stroke-miterlimit="10"/>
<path d="M-472.489 -0.67209C-440.921 -31.4396 -406.414 -58.9977 -369.834 -83.1736C-353.589 -93.9163 -336.634 -104.14 -317.796 -109.483C-280.064 -120.187 -241.506 -109.867 -207.076 -92.9169C-197.629 -88.2663 -188.469 -83.1544 -179.732 -77.8118C-142.365 -54.8467 -107.801 -27.0964 -76.9238 4.32452C-46.3731 35.4379 -19.8165 71.4711 16.1684 99.1638C44.3188 120.822 75.868 140.559 109.51 151.974C138.41 161.717 169.94 164.485 198.57 154.472C203.735 152.666 208.766 150.475 213.605 147.861C243.503 131.834 263.742 102.431 278.029 70.9906C282.56 60.9975 286.535 50.7929 290.165 40.6459C299.631 14.1255 307.792 -13.1635 316.644 -39.0113C330.854 -80.5599 350.325 -116.497 380.261 -146.092C400.712 -166.309 429.188 -182.241 459.547 -181.376C502.79 -180.146 537.469 -153.645 571.189 -134.562C573.838 -133.063 576.527 -131.583 579.234 -130.161C620.077 -108.522 664.742 -95.7996 710.232 -101.623C758.717 -107.791 808.259 -138.828 826.29 -189.063" stroke="#4700FB" stroke-miterlimit="10"/>
<path d="M-468.111 14.1638C-437.215 -16.0272 -403.246 -42.9127 -367.184 -66.2814C-351.17 -76.6589 -334.483 -86.4984 -316.01 -91.7448C-279.046 -102.257 -241.218 -93.0516 -207.211 -77.4661C-197.859 -73.1805 -188.777 -68.453 -180.097 -63.4948C-142.979 -42.1632 -108.473 -16.0464 -77.4615 13.7602C-46.7764 43.2786 -19.9318 77.7166 15.6115 104.468C44.7412 126.395 76.8857 146.785 111.296 158.796C140.829 169.058 173.204 172.287 202.622 162.294C207.941 160.487 213.106 158.277 218.118 155.644C248.937 139.425 269.618 109.253 284.461 77.0633C289.166 66.8395 293.333 56.4042 297.154 46.0459C307.158 18.9682 316.145 -8.83977 326.015 -35.0911C341.914 -77.3316 363.709 -113.057 395.546 -142.345C415.996 -161.159 443.628 -176.341 473.123 -175.726C515.156 -174.842 549.298 -150.609 582.403 -133.697C585.014 -132.371 587.645 -131.064 590.295 -129.815C630.35 -110.79 673.555 -100.796 716.895 -108.31C763.076 -116.286 809.526 -147.668 825.867 -196.731" stroke="#4700FB" stroke-miterlimit="10"/>
<path d="M-463.752 29.0192C-433.508 -0.614501 -400.097 -26.789 -364.553 -49.3698C-348.788 -59.3822 -332.332 -68.8373 -314.244 -73.9876C-278.048 -84.3075 -240.949 -76.2361 -207.364 -62.015C-198.128 -58.0946 -189.122 -53.7514 -180.481 -49.1776C-143.613 -29.4795 -109.164 -4.99613 -77.9991 23.1962C-47.1796 51.1003 -20.0085 83.924 15.0739 109.772C45.1829 131.949 77.9227 152.992 113.12 165.638C143.268 176.419 176.526 180.089 206.712 170.154C212.184 168.367 217.503 166.137 222.65 163.466C254.372 147.054 275.494 116.133 290.913 83.1553C295.791 72.7009 300.13 62.0351 304.163 51.4462C314.705 23.8111 324.498 -4.53492 335.424 -31.1706C353.033 -74.0837 377.074 -109.656 410.85 -138.597C431.224 -156.047 458.068 -170.441 486.718 -170.057C527.542 -169.538 561.146 -147.553 593.655 -132.832C596.228 -131.679 598.801 -130.545 601.394 -129.469C640.662 -113.057 682.408 -105.793 723.596 -115.017C767.473 -124.818 810.832 -156.547 825.502 -204.418" stroke="#4700FB" stroke-miterlimit="10"/>
<path d="M-459.393 43.8549C-429.802 14.7786 -396.948 -10.7041 -361.923 -32.4585C-346.388 -42.125 -330.201 -51.1573 -312.477 -56.2308C-277.03 -66.3585 -240.699 -59.4209 -207.518 -46.545C-198.378 -42.9898 -189.449 -39.0502 -180.865 -34.8415C-144.247 -16.7769 -109.836 6.07294 -78.556 32.651C-47.6021 58.96 -20.1046 90.131 14.4978 115.095C45.5861 137.522 78.9211 159.219 114.906 172.479C145.687 183.779 179.79 187.911 210.763 177.994C216.37 176.207 221.843 173.978 227.143 171.268C259.767 154.645 281.351 122.974 297.327 89.2278C302.377 78.5428 306.909 67.6271 311.152 56.846C322.232 28.6537 332.851 -0.230467 344.814 -27.2313C364.112 -70.8362 390.342 -106.312 426.154 -134.831C446.432 -150.974 472.508 -164.503 500.313 -164.388C539.927 -164.234 572.993 -144.478 604.907 -131.948C607.423 -130.968 609.958 -130.007 612.492 -129.085C650.973 -115.287 691.26 -110.751 730.298 -121.686C771.89 -133.294 812.157 -165.368 825.137 -212.067" stroke="#4700FB" stroke-miterlimit="10"/>
<path d="M-455.034 58.6911C-426.096 30.1913 -393.779 5.38127 -359.311 -15.566C-344.007 -24.8673 -328.069 -33.5153 -310.73 -38.4927C-276.051 -48.4474 -240.45 -42.6245 -207.71 -31.0938C-198.666 -27.9229 -189.833 -24.3484 -181.288 -20.5241C-144.9 -4.09302 -110.566 17.1233 -79.1321 42.087C-48.0437 66.801 -20.2005 96.3193 13.9026 120.399C45.9894 143.057 79.9004 165.426 116.673 179.32C148.087 191.139 183.055 195.713 214.796 185.854C220.557 184.067 226.164 181.819 231.617 179.109C265.144 162.294 287.169 129.873 303.74 95.3584C308.983 84.4236 313.687 73.2966 318.123 62.3041C329.74 33.5544 341.242 4.17056 354.165 -23.2531C375.249 -67.5114 403.515 -103.026 441.401 -131.026C461.525 -145.9 486.91 -158.545 513.851 -158.68C552.274 -158.872 584.784 -141.384 616.102 -131.026C618.58 -130.219 621.057 -129.431 623.553 -128.681C661.266 -117.497 700.074 -115.709 736.961 -128.335C776.249 -141.749 813.424 -174.189 824.734 -219.715" stroke="#4700FB" stroke-miterlimit="10"/>
<path d="M-450.656 73.5463C-422.39 45.6038 -390.611 21.5049 -356.661 1.34553C-341.588 -7.59069 -325.919 -15.8543 -308.944 -20.7356C-275.033 -30.4982 -240.162 -25.7899 -207.844 -15.6429C-198.896 -12.8372 -190.14 -9.64703 -181.652 -6.20706C-145.514 8.59055 -111.238 28.1926 -79.6696 51.5229C-48.4469 74.6225 -20.2581 102.488 13.3458 125.722C46.9496 148.957 80.9183 171.672 118.478 186.162C150.507 198.48 186.338 203.535 218.867 193.714C224.781 191.946 230.542 189.679 236.13 186.931C270.578 169.923 293.045 136.753 310.173 101.45C315.588 90.2849 320.485 78.9272 325.132 67.7233C337.287 38.4164 349.595 8.49451 363.575 -19.3135C386.348 -64.2444 416.669 -99.8548 456.724 -127.259C476.675 -140.904 501.37 -152.627 527.465 -153.011C564.679 -153.568 596.651 -138.329 627.374 -130.142C629.794 -129.488 632.232 -128.893 634.671 -128.316C671.597 -119.726 708.945 -120.687 743.682 -135.023C780.665 -150.263 814.749 -183.029 824.389 -227.383" stroke="#4700FB" stroke-miterlimit="10"/>
<path d="M-446.297 88.3827C-418.685 60.9975 -387.462 37.5903 -354.031 18.2381C-339.207 9.64785 -323.768 1.78784 -307.178 -2.99736C-274.035 -12.5678 -239.893 -9.01251 -207.998 -0.191595C-199.165 2.24905 -190.486 5.05484 -182.037 8.11045C-146.148 21.2553 -111.93 39.2431 -80.2076 60.9591C-48.8505 82.4636 -20.316 108.638 12.7886 131.027C46.9108 154.107 81.9357 177.879 120.282 192.985C152.945 205.822 189.622 211.318 222.937 201.536C228.986 199.768 234.9 197.501 240.642 194.714C275.993 177.514 298.901 143.576 316.606 107.524C322.193 96.1274 327.263 84.5199 332.121 73.1046C344.814 43.2404 357.948 12.7996 372.964 -15.412C397.428 -61.0347 429.764 -96.8565 472.009 -123.511C491.768 -135.984 515.79 -146.726 541.041 -147.341C577.045 -148.245 608.479 -135.273 638.607 -129.257C640.988 -128.777 643.369 -128.354 645.75 -127.951C681.889 -121.974 717.778 -125.664 750.345 -141.711C785.024 -158.757 816.016 -191.888 823.985 -235.051" stroke="#4700FB" stroke-miterlimit="10"/>
<path d="M-441.938 103.237C-414.978 76.4288 -384.312 53.6943 -351.4 35.1493C-336.806 26.9241 -321.617 19.4484 -305.411 14.7593C-273.036 5.38106 -239.624 7.80253 -208.171 15.2782C-199.434 17.3537 -190.831 19.7559 -182.44 22.4464C-146.801 33.9577 -112.64 50.312 -80.7834 70.4137C-49.2918 90.3232 -20.3925 114.807 12.1936 136.35C47.3528 159.603 82.9153 184.105 122.03 199.845C155.327 213.201 192.867 219.158 226.951 209.415C233.153 207.647 239.221 205.379 245.097 202.554C281.351 185.143 304.72 150.475 322.981 113.634C328.742 102.008 334.003 90.1695 339.053 78.5428C352.284 48.1404 366.224 17.1423 382.277 -11.4536C408.431 -57.749 442.707 -93.9167 487.217 -119.726C506.784 -131.064 530.154 -140.769 554.54 -141.653C589.335 -142.922 620.231 -132.198 649.764 -128.355C652.088 -128.047 654.43 -127.797 656.754 -127.567C692.105 -124.204 726.554 -130.622 756.951 -148.36C789.345 -167.213 817.246 -200.69 823.525 -242.681" stroke="#4700FB" stroke-miterlimit="10"/>
<path d="M-437.579 118.074C-411.272 91.8223 -381.163 69.7796 -348.769 52.0609C-334.406 44.2009 -319.486 37.1288 -303.644 32.5165C-272.037 23.3305 -239.355 24.618 -208.324 30.7292C-199.683 32.4396 -191.177 34.4575 -182.843 36.7636C-147.453 46.6415 -113.35 61.3622 -81.3403 79.8689C-49.7143 98.1641 -20.431 120.956 11.6175 141.673C47.8136 165.08 83.9137 190.332 123.816 206.686C157.727 220.561 196.131 226.961 231.002 217.256C237.358 215.488 243.561 213.201 249.59 210.357C286.746 192.753 310.576 157.316 329.394 119.707C335.328 107.85 340.781 95.7811 346.043 83.943C359.811 52.9833 374.577 21.4663 391.667 -7.51391C419.51 -54.5011 455.707 -91.1492 502.521 -115.959C521.877 -126.221 544.593 -134.85 568.135 -135.984C601.72 -137.618 632.098 -129.123 661.016 -127.471C663.301 -127.336 665.586 -127.24 667.872 -127.202C702.435 -126.452 735.425 -135.6 763.671 -155.048C793.761 -175.726 818.57 -209.549 823.179 -250.368" stroke="#4700FB" stroke-miterlimit="10"/>
<path d="M-433.201 132.91C-407.566 107.235 -377.995 85.8844 -346.139 68.9536C-332.006 61.4395 -317.335 54.7709 -301.878 50.2548C-271.039 41.2609 -239.086 41.4147 -208.478 46.1806C-199.952 47.5067 -191.503 49.1594 -183.227 51.0811C-148.087 59.3255 -114.042 72.4128 -81.8973 89.3051C-50.1369 106.005 -20.4888 127.068 11.0412 146.997C48.2935 170.538 84.9121 196.578 125.601 213.547C160.146 227.941 199.415 234.802 235.054 225.136C241.544 223.387 247.919 221.081 254.083 218.198C292.161 200.402 316.414 164.216 335.808 125.838C341.914 113.75 347.54 101.431 353.013 89.382C367.319 57.865 382.911 25.8099 401.038 -3.55471C430.571 -51.2338 468.629 -88.5352 517.787 -112.173C536.951 -121.378 559.014 -128.912 581.692 -130.295C614.086 -132.275 643.907 -126.048 672.23 -126.586C674.458 -126.625 676.704 -126.702 678.932 -126.836C712.709 -128.7 744.239 -140.577 770.334 -161.735C798.12 -184.22 819.838 -218.389 822.776 -258.035" stroke="#4700FB" stroke-miterlimit="10"/>
<path d="M-428.842 147.765C-403.86 122.647 -374.846 101.988 -343.508 85.8648C-329.625 78.7159 -315.204 72.4317 -300.111 68.0116C-270.04 59.1907 -238.817 58.1529 -208.632 61.6506C-200.202 62.5922 -191.849 63.8799 -183.611 65.4173C-148.702 72.0282 -114.714 83.4818 -82.4348 98.7599C-50.5591 113.865 -20.5077 133.179 10.5038 152.32C48.8314 175.977 85.9492 202.804 127.426 220.389C162.585 235.282 202.718 242.604 239.144 232.995C245.788 231.247 252.298 228.94 258.615 226.019C297.596 208.012 322.309 171.076 342.26 131.93C348.539 119.611 354.357 107.062 360.041 94.8011C374.885 62.7268 391.283 30.1528 410.447 0.384665C441.689 -47.967 481.572 -86.0949 533.111 -108.407C552.082 -116.613 573.474 -122.974 595.307 -124.607C626.491 -126.952 655.774 -122.974 683.502 -125.683C685.691 -125.895 687.88 -126.145 690.05 -126.452C723.04 -130.93 753.11 -145.554 777.055 -168.404C802.556 -192.715 821.163 -227.23 822.43 -265.684" stroke="#4700FB" stroke-miterlimit="10"/>
<path d="M-424.483 162.601C-400.154 138.041 -371.697 118.074 -340.877 102.757C-327.224 95.9734 -313.053 90.0735 -298.344 85.7496C-269.022 77.1208 -238.549 74.9492 -208.804 77.0824C-200.471 77.6589 -192.214 78.5622 -184.014 79.7152C-149.354 84.6734 -115.424 94.5128 -83.0109 108.177C-51.0008 121.687 -20.5654 139.252 9.9085 157.604C49.3114 181.338 86.9285 208.993 129.193 227.211C164.985 242.623 205.963 250.407 243.177 240.817C249.974 239.068 256.618 236.743 263.089 233.803C302.972 215.603 328.127 177.918 348.654 138.002C355.106 125.453 361.117 112.674 366.992 100.201C382.373 67.5696 399.598 34.4576 419.799 4.30505C452.73 -44.7385 494.437 -83.8848 548.357 -104.659C567.156 -111.904 587.856 -117.074 608.844 -118.957C638.819 -121.648 667.564 -119.937 694.678 -124.818C696.809 -125.203 698.96 -125.626 701.091 -126.106C733.313 -133.197 761.905 -150.551 783.699 -175.111C806.895 -201.228 822.43 -236.089 822.007 -273.371" stroke="#4700FB" stroke-miterlimit="10"/>
<path d="M-420.125 177.437C-396.448 153.453 -368.547 134.159 -338.246 119.669C-324.824 113.25 -310.922 107.735 -296.578 103.507C-268.024 95.0701 -238.299 91.7647 -208.958 92.5526C-200.739 92.764 -192.54 93.2636 -184.398 94.0516C-149.988 97.3762 -116.115 105.582 -83.5485 117.632C-51.404 129.527 -20.5845 145.344 9.35172 162.928C49.8491 186.719 87.9462 215.219 130.998 234.052C167.424 249.984 209.266 258.209 247.267 248.677C254.199 246.928 261.016 244.603 267.621 241.624C308.407 223.233 334.022 184.778 355.126 144.094C361.75 131.315 367.953 118.304 374.02 105.601C389.939 72.4125 407.989 38.7623 429.227 8.2254C463.848 -41.4907 507.38 -81.8478 563.7 -100.893C582.364 -107.196 602.354 -111.155 622.478 -113.288C651.243 -116.344 679.451 -116.882 705.969 -123.935C708.062 -124.492 710.155 -125.088 712.229 -125.722C743.663 -135.427 770.795 -155.509 790.439 -181.78C811.331 -209.703 823.774 -244.929 821.681 -281.039" stroke="#4700FB" stroke-miterlimit="10"/>
<path d="M-415.747 192.292C-362.268 137.868 -285.364 109.522 -209.112 108.004C-132.86 106.505 -57.4337 130.354 8.77545 168.251C50.3866 192.062 88.9446 221.465 132.764 240.913C176.583 260.361 228.314 268.971 272.095 249.446C326.898 225.02 354.684 164.984 380.972 111.04C424.234 22.312 484.222 -69.4716 578.946 -97.1066C626.126 -110.867 677.684 -107.023 723.27 -125.337C786.503 -150.724 828.575 -220.888 821.239 -288.668" stroke="#4700FB" stroke-miterlimit="10"/>
</g>
<g style="mix-blend-mode:multiply">
<path d="M-81.3404 980.198C-89.4245 914.858 -24.9628 859.646 40.0366 849.48C105.036 839.333 170.247 860.28 234.651 873.713C299.055 887.146 371.524 891.585 425.329 853.688C494.111 805.24 510.029 703.329 580.789 657.822C635.938 622.346 707.735 632.973 764.247 659.359C796.2 674.272 823.371 699.37 853.902 716.858C992.388 796.15 1001.74 958.155 1119.39 982.331C1246.8 1008.49 1315.93 946.317 1339.97 903.212C1370.77 847.981 1422.11 704.694 1296.28 605.108C1245.17 564.654 1194.68 521.53 1157.09 468.258C1100.78 388.505 1101.17 266.588 1173.16 200.672C1222.51 155.51 1298.3 139.002 1331.83 81.08C1354.35 42.1642 1351.28 -8.01315 1331.9 -48.6201C1312.53 -89.2078 1278.79 -121.321 1242.15 -147.341" stroke="#4700FB" stroke-miterlimit="10"/>
<path d="M-78.4218 983.446C-83.9904 916.222 -19.8935 858.146 47.0453 846.597C112.39 835.316 178.676 856.109 243.081 870.926C306.736 885.57 377.4 892.219 431.032 857.781C499.545 813.696 518.805 716.954 589.469 672.042C645.77 636.451 716.414 643.081 774.271 666.142C807.51 679.403 836.966 703.041 868.937 720.778C1004.52 795.958 1015.68 952.717 1130.78 976.546C1254.58 1002.13 1323.34 943.3 1348.32 900.867C1379.98 847.096 1428.97 709.036 1310.07 610.584C1261.05 569.996 1212.43 526.046 1175.44 473.12C1120.79 395.269 1120.29 277.676 1188.25 212.336C1235.28 167.136 1308.34 148.726 1341.71 91.5532C1364.62 52.4837 1363.22 3.01746 1346.28 -37.8778C1329.35 -78.773 1298.05 -113.077 1262.83 -141.019" stroke="#4700FB" stroke-miterlimit="10"/>
<path d="M-75.5029 986.713C-78.5753 917.625 -14.824 856.686 54.0543 843.714C119.726 831.338 187.087 851.92 251.51 868.159C314.417 884.014 383.295 892.873 436.754 861.875C504.979 822.171 527.503 730.426 598.187 686.283C655.544 650.461 725.209 653.152 784.352 672.946C818.916 684.515 850.6 706.75 884.031 724.718C1016.58 795.978 1029.66 947.278 1142.2 970.781C1262.41 995.784 1330.77 940.283 1356.71 898.542C1389.22 846.251 1435.88 713.322 1323.91 616.1C1276.98 575.359 1230.25 530.601 1193.84 478.002C1140.86 402.034 1139.48 288.746 1203.38 224.04C1248.08 178.783 1318.42 158.489 1351.66 102.085C1374.95 62.8423 1375.22 14.0679 1360.74 -27.0964C1345.96 -69.087 1317.39 -104.813 1283.59 -134.658" stroke="#4700FB" stroke-miterlimit="10"/>
<path d="M-72.5842 989.98C-73.1603 919.009 -9.77386 855.264 61.063 840.831C127.08 827.379 195.517 847.711 259.94 865.372C322.078 882.399 389.171 893.526 442.457 865.968C510.413 830.627 536.24 744.013 606.885 700.523C665.356 664.528 734.042 663.183 794.395 679.749C830.322 689.607 864.175 710.459 899.104 728.677C1028.51 796.17 1043.64 941.859 1153.63 965.035C1270.24 989.461 1338.2 937.285 1365.1 896.236C1398.42 845.386 1442.81 717.512 1337.74 621.615C1292.86 580.663 1248.16 535.059 1212.23 482.883C1161.12 408.664 1158.64 299.777 1218.53 235.725C1260.91 190.39 1328.39 168.155 1361.61 112.578C1385.19 73.1237 1387.26 25.0604 1375.18 -16.3345C1363.11 -57.7294 1336.7 -96.5491 1304.35 -128.316" stroke="#4700FB" stroke-miterlimit="10"/>
<path d="M-69.6655 993.227C-67.7453 920.373 -4.70452 853.842 68.0718 837.949C134.435 823.458 203.927 843.483 268.37 862.605C332.812 881.726 395.047 894.179 448.179 870.08C515.848 839.102 544.997 757.599 615.584 714.782C675.168 678.615 742.933 673.176 804.457 686.59C841.767 694.719 877.771 714.225 914.178 732.655C1040.34 796.534 1057.62 936.478 1165.05 959.308C1278.08 983.138 1345.59 934.306 1373.49 893.949C1407.62 844.559 1449.77 721.624 1351.57 627.169C1308.74 585.986 1266 539.633 1230.61 487.802C1181.22 415.429 1177.79 310.808 1233.64 247.447C1273.72 201.997 1338.41 177.937 1371.52 123.109C1395.44 83.4819 1399.28 36.0526 1389.59 -5.55364C1379.45 -49.0817 1355.98 -88.2665 1325.05 -121.955" stroke="#4700FB" stroke-miterlimit="10"/>
<path d="M-66.7468 996.495C-62.3111 921.776 0.364802 852.439 75.0805 835.066C141.789 819.557 212.338 839.256 276.8 859.819C337.44 879.171 400.98 894.929 453.882 874.174C521.339 847.711 553.753 771.206 624.282 729.004C685 692.682 751.862 683.074 814.499 693.374C853.23 699.735 891.327 717.934 929.232 736.576C1052.05 796.996 1071.58 931.02 1176.44 953.524C1285.87 976.777 1352.97 931.27 1381.85 891.604C1416.76 843.656 1456.7 725.545 1365.35 632.666C1324.59 591.213 1283.78 544.13 1248.97 492.665C1201.29 422.155 1196.89 321.724 1248.74 259.112C1286.49 213.509 1348.42 187.642 1381.42 133.602C1405.72 93.8211 1411.32 46.9877 1403.99 5.18922C1396.19 -39.1652 1375.24 -80.0412 1345.77 -115.632" stroke="#4700FB" stroke-miterlimit="10"/>
<path d="M-63.8281 999.761C-56.8961 923.16 5.43417 851.074 82.0893 832.183C149.143 815.675 220.768 835.008 285.249 857.051C345.14 877.537 406.875 895.602 459.624 878.287C526.793 856.205 562.547 784.812 633 743.263C694.831 706.788 760.829 692.951 824.58 700.196C864.732 704.77 904.903 721.701 944.325 740.534C1063.74 797.611 1085.58 925.62 1187.89 947.778C1293.71 970.455 1360.36 928.272 1390.24 889.298C1425.92 842.791 1463.73 729.369 1379.18 638.181C1340.45 596.402 1301.6 548.665 1267.36 497.546C1221.39 428.9 1216.02 332.601 1263.87 270.797C1299.32 225.02 1358.48 197.385 1391.35 144.095C1416.01 104.141 1423.42 57.884 1418.41 15.951C1412.99 -29.2297 1394.54 -71.7776 1366.49 -109.291" stroke="#4700FB" stroke-miterlimit="10"/>
<path d="M-60.9092 1003.03C-51.4809 924.563 10.523 849.729 89.0984 829.32C156.498 811.813 229.178 830.742 293.678 854.303C352.821 875.884 412.751 896.313 465.327 882.399C532.227 864.719 571.304 798.456 641.699 757.523C704.663 720.894 769.797 702.752 834.623 707.019C876.215 709.748 918.441 725.487 959.38 744.493C1075.32 798.341 1099.54 920.2 1199.27 942.032C1301.51 964.132 1367.7 925.255 1398.59 886.992C1435.02 841.927 1470.77 733.078 1392.98 643.716C1356.29 601.552 1319.4 553.22 1285.72 502.447C1241.44 435.665 1235.09 343.439 1278.96 282.5C1312.09 236.493 1368.5 207.148 1401.26 154.607C1426.28 114.48 1435.54 68.7997 1432.81 26.7129C1429.81 -19.3326 1413.82 -63.5333 1387.19 -102.949" stroke="#4700FB" stroke-miterlimit="10"/>
<path d="M-57.9905 1006.28C-46.0659 925.927 15.5923 848.365 96.1071 826.418C163.872 807.95 237.608 826.437 302.108 851.497C360.502 874.174 418.627 896.947 471.03 886.473C537.642 873.175 580.079 812.043 650.378 771.744C714.475 734.98 778.745 712.477 844.666 713.803C887.698 714.667 931.959 729.254 974.454 748.433C1086.86 799.168 1113.52 914.762 1210.7 936.266C1309.34 957.771 1375.05 922.218 1406.98 884.667C1444.12 841.024 1477.94 736.595 1406.81 649.212C1372.15 606.626 1337.2 557.736 1304.12 507.309C1261.53 442.411 1254.15 354.182 1294.09 294.165C1324.87 247.909 1378.56 216.853 1411.19 165.08C1436.57 124.8 1447.71 79.6577 1447.23 37.4557C1446.69 -9.45462 1433.12 -55.2888 1407.92 -96.626" stroke="#4700FB" stroke-miterlimit="10"/>
<path d="M-55.0718 1009.54C-40.6317 927.311 20.6809 847.058 103.116 823.555C171.226 804.126 246.038 822.152 310.538 848.749C368.183 872.502 424.503 897.639 476.752 890.605C543.076 881.688 588.874 825.707 659.096 786.003C724.345 749.105 787.751 722.181 854.728 720.644C899.22 719.606 945.478 733.097 989.527 752.411C1098.37 800.128 1127.48 909.381 1222.12 930.539C1317.17 951.467 1382.39 919.22 1415.37 882.399C1453.22 840.159 1485.19 740.035 1420.64 654.785C1388.03 611.718 1355.02 562.348 1322.49 512.248C1281.59 449.214 1273.16 364.944 1309.21 305.907C1337.64 259.343 1388.63 226.654 1421.12 175.65C1446.89 135.197 1459.9 90.6117 1461.65 48.2752C1463.61 0.500063 1452.4 -46.9868 1428.64 -90.2266" stroke="#4700FB" stroke-miterlimit="10"/>
<path d="M-52.1531 1012.81C-35.2167 928.714 25.7694 845.751 110.125 820.672C178.6 800.321 254.468 817.828 318.968 845.963C375.883 870.792 430.379 898.273 482.455 894.699C548.492 890.163 597.649 839.352 667.776 800.244C734.158 763.231 796.699 731.829 864.771 727.447C910.702 724.488 958.977 736.941 1004.58 756.351C1109.79 801.147 1141.44 903.942 1233.51 924.794C1324.97 945.145 1389.66 916.184 1423.73 880.093C1462.27 839.256 1492.51 743.283 1434.42 660.301C1403.89 616.677 1372.78 566.884 1340.85 517.129C1301.62 455.978 1292.1 375.591 1324.3 317.592C1350.36 270.682 1398.67 236.416 1431 186.143C1457.14 145.536 1472.12 101.489 1476.03 59.018C1480.53 10.3781 1471.66 -38.7423 1449.32 -83.9038" stroke="#4700FB" stroke-miterlimit="10"/>
<path d="M-49.2344 1016.06C-29.8018 930.078 30.8579 844.464 117.133 817.77C185.973 796.477 262.916 813.485 327.397 843.176C383.583 869.043 436.235 898.927 488.177 898.792C553.906 898.619 606.444 852.996 676.493 814.484C744.027 777.356 805.685 741.438 874.832 734.25C922.204 729.331 972.476 740.804 1019.66 760.29C1121.2 802.243 1155.41 898.504 1244.94 919.028C1332.79 938.803 1396.98 913.109 1432.12 877.768C1471.35 838.314 1500 746.357 1448.27 665.816C1419.85 621.577 1390.58 571.438 1359.25 522.01C1321.69 462.762 1311.01 386.18 1339.43 329.276C1363.05 281.982 1408.75 246.16 1440.95 196.636C1467.47 155.856 1484.41 112.366 1490.47 69.7799C1497.54 20.2752 1490.97 -30.4979 1470.08 -77.562" stroke="#4700FB" stroke-miterlimit="10"/>
<path d="M-46.3157 1019.33C-24.3676 931.482 35.9465 843.196 124.142 814.907C193.347 792.711 271.365 809.142 335.827 840.409C391.302 867.314 442.111 899.58 493.88 902.905C559.321 907.094 615.238 866.66 685.173 828.725C753.859 791.481 814.615 751.008 884.875 741.054C933.668 734.154 985.936 744.705 1034.71 764.249C1132.56 803.434 1169.34 893.277 1256.34 913.282C1340.56 932.635 1404.26 910.054 1440.49 875.462C1480.37 837.373 1507.62 749.298 1462.07 671.332C1435.82 626.401 1408.37 575.993 1377.62 526.892C1341.71 469.546 1329.83 396.711 1354.54 340.98C1375.7 293.263 1418.81 255.942 1450.86 207.167C1477.76 166.234 1496.68 123.301 1504.88 80.5613C1514.53 30.1918 1510.25 -22.2148 1490.78 -71.2007" stroke="#4700FB" stroke-miterlimit="10"/>
<path d="M-43.397 1022.59C-18.9526 932.865 41.0543 841.946 131.151 812.024C200.74 788.925 279.814 804.779 344.257 837.642C399.002 865.565 447.987 900.233 499.583 906.998C564.736 915.55 624.033 880.324 693.871 842.965C763.71 805.625 823.544 760.54 894.918 747.876C945.132 738.959 999.378 748.664 1049.76 768.208C1143.89 804.683 1183.3 887.877 1267.73 907.536C1348.36 926.312 1411.51 906.979 1448.84 873.156C1489.38 836.431 1515.4 752.104 1475.86 676.866C1451.86 631.167 1426.11 580.567 1395.98 531.792C1361.72 476.33 1348.55 407.223 1369.63 352.683C1388.26 304.505 1428.85 265.704 1460.77 217.679C1488.05 176.592 1508.99 134.236 1519.28 91.3422C1531.57 40.1463 1529.53 -13.9514 1511.5 -64.8398" stroke="#4700FB" stroke-miterlimit="10"/>
<path d="M-40.4783 1025.86C-13.5376 934.268 46.162 840.716 138.16 809.142C208.132 785.139 288.282 800.378 352.687 834.874C406.741 863.816 453.863 900.868 505.305 911.111C570.17 924.025 632.846 894.007 702.57 857.224C772.293 820.442 832.453 770.072 904.98 754.698C956.595 743.763 1012.82 752.68 1064.86 772.167C1155.24 806.028 1197.29 882.457 1279.17 901.79C1356.21 919.989 1418.81 903.885 1457.25 870.849C1498.44 835.451 1523.42 754.794 1489.71 682.401C1468.05 635.894 1443.91 585.16 1414.38 536.693C1381.75 483.152 1367.23 417.697 1384.77 364.387C1400.78 315.708 1438.95 275.486 1470.7 228.191C1498.37 186.969 1521.33 145.171 1533.7 102.104C1548.66 50.0818 1548.81 -5.68788 1532.22 -58.498" stroke="#4700FB" stroke-miterlimit="10"/>
<path d="M-37.5593 1029.11C-8.12237 935.632 51.2892 839.467 145.169 806.259C215.526 781.372 296.77 795.978 361.117 832.088C414.46 862.029 459.739 901.502 511.009 915.204C575.586 932.462 641.641 907.671 711.268 871.465C783.43 833.933 841.344 779.566 915.023 761.501C968.04 748.51 1026.24 756.716 1079.91 776.107C1166.53 807.393 1211.24 877.018 1290.56 896.025C1364.01 913.628 1426.03 900.772 1465.61 868.524C1507.43 834.451 1531.61 757.369 1503.49 687.897C1484.33 640.507 1461.63 589.695 1432.73 541.555C1401.74 489.917 1385.78 428.113 1399.86 376.052C1413.17 326.855 1449.02 285.229 1480.58 238.684C1508.66 197.309 1533.64 156.106 1548.1 112.847C1565.75 60.0367 1568.09 2.55665 1552.92 -52.1753" stroke="#4700FB" stroke-miterlimit="10"/>
<path d="M-34.6406 1032.37C-2.68818 937.016 56.4162 838.256 152.197 803.376C222.938 777.625 305.277 791.577 369.565 829.32C422.237 860.241 465.634 902.136 516.75 919.317C581.058 940.917 650.474 921.373 719.986 885.705C793.319 848.096 850.254 789.021 925.104 768.304C979.485 753.237 1039.66 760.828 1095.01 780.046C1177.84 808.834 1225.23 871.58 1302 890.259C1371.86 907.267 1433.31 897.62 1474.02 866.199C1514.73 834.778 1540.05 759.887 1517.36 693.413C1500.84 645.08 1479.41 594.269 1451.15 546.436C1421.77 496.72 1404.28 438.548 1415.01 387.736C1425.51 338.02 1459.14 294.992 1490.55 249.177C1519.01 207.648 1546.05 167.06 1562.56 123.609C1582.89 70.0107 1587.43 10.801 1573.7 -45.8335" stroke="#4700FB" stroke-miterlimit="10"/>
<path d="M-31.7219 1035.64C2.7268 938.419 61.5431 837.065 159.205 800.513C230.33 773.877 313.783 787.157 377.995 826.553C429.975 858.454 471.548 902.693 522.453 923.429C586.531 949.258 659.269 935.075 728.685 899.964C803.189 862.278 859.106 798.514 935.147 775.126C990.891 757.984 1053.05 765.018 1110.06 784.024C1189.11 810.352 1239.23 866.026 1313.41 884.532C1379.7 900.81 1440.55 894.507 1482.39 863.912C1525.44 832.433 1548.69 762.423 1531.16 698.947C1517.55 649.654 1497.14 598.881 1469.52 551.336C1441.76 503.542 1422.65 449.002 1430.12 399.44C1437.71 349.205 1469.22 304.774 1500.46 259.689C1529.32 218.025 1558.41 178.052 1576.96 134.371C1600.02 80.023 1606.7 19.0646 1594.4 -39.4917" stroke="#4700FB" stroke-miterlimit="10"/>
<path d="M-28.8032 1038.89C8.14179 939.783 66.6893 835.873 166.214 797.611C237.742 770.11 322.309 782.698 386.425 823.766C437.752 856.628 477.443 903.327 528.175 927.522C591.965 957.713 668.102 948.758 737.383 914.204C813.059 876.461 867.939 807.95 945.209 781.948C1002.32 762.731 1066.41 769.303 1125.13 787.983C1200.41 811.928 1253.21 860.606 1324.82 878.786C1387.51 894.487 1447.77 891.335 1490.76 861.606C1533.76 831.876 1557.59 764.998 1544.97 704.482C1534.49 654.228 1514.86 603.493 1487.88 556.237C1461.71 510.383 1440.89 459.514 1445.21 411.143C1449.75 360.409 1479.3 314.575 1510.37 270.201C1539.65 228.402 1570.78 189.064 1591.36 145.151C1617.15 90.0736 1625.96 27.3279 1615.1 -33.1309" stroke="#4700FB" stroke-miterlimit="10"/>
<path d="M-25.8845 1042.16C13.576 941.186 71.8162 834.701 173.223 794.728C245.154 766.382 330.835 778.239 394.855 820.979C445.51 854.803 483.319 903.961 533.878 931.596C597.399 966.15 676.973 962.575 746.082 928.426C823.006 890.778 876.772 817.367 955.251 788.732C1013.68 767.401 1079.76 773.646 1140.21 791.903C1211.7 813.485 1267.19 855.149 1336.24 873.002C1395.35 888.126 1455.01 888.126 1499.15 859.261C1543.3 830.396 1566.73 767.651 1558.8 709.959C1551.75 658.782 1532.57 608.048 1506.28 561.08C1481.7 517.167 1459.1 470.007 1460.35 422.789C1461.71 371.613 1489.49 324.356 1520.3 280.675C1550.06 238.799 1583.18 200.056 1605.78 155.875C1634.32 100.086 1645.26 35.5532 1635.83 -26.8274" stroke="#4700FB" stroke-miterlimit="10"/>
<path d="M-22.9658 1045.42C18.991 942.57 77.0392 833.682 180.232 791.865C252.605 762.769 339.38 773.8 403.284 818.231C453.306 853.015 489.195 904.653 539.582 935.728C602.814 974.663 685.749 976.239 754.761 942.685C832.837 904.922 885.547 826.822 965.294 795.555C1025.05 772.109 1093.07 778.143 1155.26 795.862C1222.99 815.157 1281.15 849.748 1347.65 867.256C1403.16 881.784 1462.21 884.917 1507.53 856.955C1552.4 829.243 1576.06 770.533 1572.62 715.494C1569.36 663.491 1550.25 612.679 1524.67 565.999C1501.67 524.028 1477.22 480.673 1475.48 434.512C1473.54 382.97 1499.58 334.157 1530.24 291.206C1560.39 249.158 1595.59 211.126 1620.22 166.656C1651.5 110.175 1664.58 43.8168 1656.57 -20.4663" stroke="#4700FB" stroke-miterlimit="10"/>
<path d="M-20.0471 1048.69C24.406 943.953 82.1277 832.395 187.241 788.982C259.978 758.945 347.944 769.303 411.714 815.464C461.083 851.19 495.09 905.307 545.304 939.841C608.268 983.138 694.543 989.903 763.479 956.945C842.688 919.067 894.361 836.277 975.356 802.377C1036.44 776.817 1106.35 782.794 1170.34 799.84C1234.3 816.886 1295.13 844.348 1359.05 861.548C1410.96 875.5 1469.43 881.746 1515.9 854.687C1561.39 828.205 1585.58 773.723 1586.43 721.067C1587.27 668.41 1567.92 617.349 1543.03 570.938C1521.58 530.908 1495.24 491.454 1490.57 446.273C1485.21 394.463 1509.6 343.978 1540.13 301.776C1570.66 259.574 1607.95 222.234 1634.61 177.495C1668.65 120.342 1683.84 52.1573 1677.27 -14.0476" stroke="#4700FB" stroke-miterlimit="10"/>
</g>
<g style="mix-blend-mode:multiply">
<path d="M741.262 1438.77C685.307 1404.14 682.696 1319.27 715.512 1262.2C748.329 1205.12 805.494 1167.4 856.303 1125.56C907.112 1083.72 955.962 1029.99 960.167 964.266C965.525 880.266 896.128 803.991 905.019 720.279C911.951 655.035 965.198 605.684 1021.15 578.126C1052.8 562.54 1089.36 557.082 1122.1 544.206C1270.61 485.842 1402.64 580.067 1495.18 503.426C1595.38 420.445 1590.27 327.565 1571.76 281.808C1548.04 223.194 1468.62 93.3405 1312.22 129.124C1248.68 143.652 1183.49 156.009 1118.45 151.974C1021.06 145.939 926.352 69.2415 920.131 -28.2113C915.868 -94.9928 950.489 -164.465 926.391 -226.903C910.203 -268.855 869.187 -297.893 825.445 -308.213C781.702 -318.533 735.559 -312.325 692.316 -300.045" stroke="#4700FB" stroke-miterlimit="10"/>
<path d="M745.64 1438.52C689.8 1400.76 684.731 1314.37 717.663 1254.91C750.595 1195.45 807.529 1158.19 859.433 1117.24C910.722 1076.77 960.167 1025.8 966.946 962.383C975.529 881.323 912.258 805.701 921.571 722.431C929.137 656.226 978.544 605.261 1032.75 574.57C1063.9 556.948 1100.77 548.799 1134.62 534.963C1278.12 476.291 1407.18 565.807 1497.85 490.954C1595.34 410.413 1592.59 319.917 1575.19 273.852C1553.17 215.469 1476.32 90.7459 1325.16 121.821C1262.85 134.639 1198.16 145.017 1133.76 140.712C1038.88 134.562 946.995 61.2853 938.699 -32.6507C932.958 -97.6449 964.392 -166.175 940.792 -228.018C924.72 -270.373 885.317 -300.257 842.861 -312.671C800.405 -325.086 754.07 -322.165 710.251 -312.191" stroke="#4700FB" stroke-miterlimit="10"/>
<path d="M750.019 1438.29C694.275 1397.39 686.767 1309.51 719.814 1247.63C751.324 1188.65 809.545 1148.99 862.563 1108.92C915.58 1068.85 964.373 1021.61 973.724 960.481C985.533 882.38 928.215 807.354 938.104 724.545C946.15 657.36 991.889 604.704 1044.35 570.977C1075.02 551.259 1112.17 540.478 1147.12 525.661C1285.64 466.913 1411.69 551.49 1500.5 478.424C1595.28 400.324 1594.88 312.23 1578.63 265.838C1558.26 207.724 1483.98 88.0365 1338.1 114.48C1276.97 125.569 1212.83 133.986 1149.06 129.412C1056.7 123.147 967.618 53.2525 957.249 -37.1475C950.009 -100.374 978.275 -167.943 955.156 -229.209C939.199 -271.949 901.37 -302.736 860.239 -317.207C818.263 -331.985 772.562 -332.062 728.128 -324.413" stroke="#4700FB" stroke-miterlimit="10"/>
<path d="M754.377 1438.06C698.749 1394.05 688.821 1304.65 721.964 1240.37C752.86 1180.45 811.561 1139.8 865.673 1100.6C917.884 1062.8 968.559 1017.42 980.483 958.597C995.538 883.456 944.249 809.045 954.637 726.697C963.24 658.532 1005.23 604.108 1055.95 567.421C1086.13 545.571 1123.58 532.214 1159.64 516.398C1293.27 457.746 1416.22 537.211 1503.17 465.933C1595.24 390.273 1597.18 304.581 1582.07 257.882C1563.35 200.037 1491.57 85.2882 1351.05 107.177C1291.04 116.517 1227.52 122.82 1164.36 118.17C1074.54 111.54 988.183 45.2577 975.817 -41.5869C967.061 -103.045 992.024 -169.596 969.538 -230.343C953.581 -273.448 917.442 -305.177 877.636 -321.685C836.524 -338.731 791.053 -341.921 746.044 -336.578" stroke="#4700FB" stroke-miterlimit="10"/>
<path d="M758.755 1437.83C703.223 1390.69 690.895 1299.83 724.115 1233.1C754.397 1172.26 813.539 1130.6 868.803 1092.29C924.067 1053.99 972.764 1013.25 987.281 956.714C1005.56 884.513 960.34 810.717 971.208 728.831C980.387 659.686 1018.6 603.435 1067.57 563.828C1097.27 539.806 1135 523.951 1172.18 507.097C1300.97 448.714 1420.79 522.894 1505.86 453.403C1595.22 380.165 1599.5 296.914 1585.54 249.869C1568.45 192.312 1499.12 82.4059 1364.05 99.8363C1305.15 107.427 1242.27 111.751 1179.73 106.87C1092.41 100.067 1008.79 37.1867 994.424 -46.0835C984.132 -105.812 1005.93 -171.364 983.978 -231.534C968.117 -275.024 933.572 -307.732 895.091 -326.239C856.61 -344.745 809.603 -351.837 763.998 -348.82" stroke="#4700FB" stroke-miterlimit="10"/>
<path d="M763.114 1437.6C707.697 1387.32 692.969 1295 726.246 1225.84C755.952 1164.09 815.498 1121.39 871.914 1083.99C924.97 1048.8 977.046 1009.12 994.04 954.85C1015.68 885.647 976.412 812.427 987.742 730.983C997.496 660.858 1031.89 602.686 1079.16 560.272C1108.39 534.059 1146.43 515.726 1184.68 497.834C1308.69 439.874 1425.3 508.615 1508.52 440.911C1595.18 370.114 1601.79 289.284 1588.98 241.893C1573.52 184.624 1506.55 79.4653 1376.99 92.5333C1319.15 98.3563 1256.94 100.701 1195.03 95.6082C1110.23 88.6322 1029.28 29.1342 1012.99 -50.523C1001.13 -108.541 1019.79 -173.055 998.36 -232.668C982.595 -276.542 949.625 -310.25 912.488 -330.717C873.066 -352.433 828.114 -361.696 781.913 -360.985" stroke="#4700FB" stroke-miterlimit="10"/>
<path d="M767.493 1437.37C712.171 1383.98 695.1 1290.18 728.416 1218.55C757.565 1155.9 817.495 1112.15 875.063 1075.67C928.522 1041.79 981.29 1004.95 1000.84 952.947C1025.72 886.723 992.523 814.099 1004.29 733.116C1014.62 662.03 1045.19 601.879 1090.78 556.698C1119.49 528.236 1157.85 507.501 1197.22 488.571C1316.48 431.187 1429.85 494.336 1511.21 428.42C1595.16 360.063 1604.07 281.654 1592.46 233.937C1578.59 176.976 1513.96 76.4289 1389.97 85.2306C1333.17 89.2663 1271.65 89.6698 1210.39 84.3465C1128.13 77.1975 1049.76 21.0627 1031.6 -54.9816C1018.14 -111.309 1033.69 -174.785 1012.8 -233.802C997.132 -278.06 965.755 -312.825 929.943 -335.195C891.366 -359.293 846.663 -371.535 799.867 -373.149" stroke="#4700FB" stroke-miterlimit="10"/>
<path d="M771.851 1437.12C716.645 1380.6 697.212 1285.36 730.548 1211.27C759.14 1147.74 819.415 1102.9 878.155 1067.33C932.017 1034.72 985.476 1000.76 1007.58 951.045C1035.71 887.78 1008.6 815.771 1020.81 735.23C1031.73 663.164 1058.41 600.995 1102.34 553.104C1130.53 522.375 1169.24 499.295 1209.7 479.27C1324.28 422.578 1434.35 480.02 1513.84 415.89C1595.11 349.974 1606.28 274.006 1595.86 225.923C1583.57 169.27 1519.51 57.3844 1402.87 77.8897C1347.84 87.5562 1286.3 78.6008 1225.66 73.0468C1145.91 65.7441 1070.1 12.9339 1050.13 -59.4783C1035.06 -114.133 1047.54 -176.533 1027.14 -234.993C1011.57 -279.655 981.789 -315.496 947.302 -339.73C909.569 -366.25 865.116 -381.451 817.745 -385.372" stroke="#4700FB" stroke-miterlimit="10"/>
<path d="M776.229 1436.89C721.138 1377.23 699.344 1280.57 732.698 1204.01C760.772 1139.59 821.374 1093.64 881.285 1059.03C935.531 1027.68 989.681 996.61 1014.36 949.18C1045.73 888.895 1024.71 817.482 1037.36 737.402C1048.9 664.374 1071.64 600.13 1113.96 549.549C1141.61 516.514 1180.69 491.127 1222.22 470.007C1332.15 414.103 1438.88 465.741 1516.51 403.398C1595.07 339.922 1608.53 266.396 1599.31 217.967C1588.6 161.64 1527.04 52.7527 1415.84 70.5867C1361.65 79.2923 1300.99 67.5696 1240.98 61.8042C1163.75 54.367 1090.42 4.84305 1068.7 -63.8986C1051.95 -116.901 1061.42 -178.225 1041.55 -236.108C1026.07 -281.154 997.899 -318.11 964.718 -344.188C927.85 -373.169 883.647 -391.272 835.66 -397.537" stroke="#4700FB" stroke-miterlimit="10"/>
<path d="M780.589 1436.66C725.594 1373.89 701.495 1275.77 734.849 1196.72C762.404 1131.42 823.294 1084.36 884.415 1050.71C939.045 1020.63 993.886 992.44 1021.13 947.278C1055.74 889.952 1040.84 819.173 1053.91 739.516C1066.05 665.509 1084.81 599.188 1125.58 545.955C1152.65 510.614 1192.13 482.96 1234.76 460.706C1340.1 405.705 1443.43 451.424 1519.2 390.869C1595.05 329.833 1610.78 258.767 1602.77 209.954C1593.59 153.953 1534.62 48.1984 1428.8 63.2459C1375.34 70.8561 1315.7 56.5197 1256.3 50.5045C1181.59 42.9328 1110.67 -3.28571 1087.29 -68.3952C1068.83 -119.745 1075.32 -179.992 1055.95 -237.299C1040.59 -282.73 1014.03 -320.839 982.154 -348.723C946.169 -380.183 902.177 -401.188 853.595 -409.759" stroke="#4700FB" stroke-miterlimit="10"/>
<path d="M784.967 1436.43C730.087 1370.53 703.684 1271 737 1189.46C764.036 1123.29 825.214 1075.09 887.526 1042.4C942.521 1013.56 998.073 988.269 1027.91 945.413C1065.74 891.066 1056.97 820.883 1070.46 741.668C1083.23 666.699 1097.96 598.246 1137.17 542.4C1163.65 504.714 1203.57 474.869 1247.28 451.442C1348.07 397.441 1447.96 437.144 1521.89 378.377C1595.03 319.782 1613 251.175 1606.24 201.978C1598.58 146.323 1542.3 43.8546 1441.78 55.9425C1388.93 62.2844 1330.4 45.5074 1271.65 39.2424C1199.45 31.5361 1130.87 -11.3962 1105.87 -72.8543C1085.65 -122.57 1089.24 -181.722 1070.35 -238.453C1055.1 -284.287 1030.18 -323.549 999.57 -353.221C964.507 -387.198 920.688 -411.066 871.53 -421.943" stroke="#4700FB" stroke-miterlimit="10"/>
<path d="M789.326 1436.2C734.542 1367.17 705.854 1266.21 739.131 1182.19C765.688 1115.16 827.115 1065.79 890.636 1034.1C945.996 1006.49 1002.24 984.118 1034.67 943.531C1075.73 892.143 1073.1 822.575 1086.98 743.821C1100.36 667.872 1111.02 597.286 1148.75 538.845C1174.6 498.814 1215.02 466.798 1259.76 442.199C1356.04 389.274 1452.45 422.885 1524.52 365.905C1594.95 309.751 1615.17 243.604 1609.66 194.041C1603.52 138.733 1549.85 58.7488 1454.7 48.6595C1402.43 43.1056 1345.08 34.5153 1286.93 28.0005C1217.25 20.1789 1150.92 -19.4672 1124.42 -77.274C1102.4 -125.337 1103.11 -183.413 1084.73 -239.548C1069.6 -285.767 1046.33 -326.239 1016.97 -357.66C982.826 -394.193 939.199 -420.867 889.427 -434.069" stroke="#4700FB" stroke-miterlimit="10"/>
<path d="M793.703 1435.96C739.035 1363.82 708.081 1261.45 741.301 1174.93C767.377 1107.03 829.035 1056.49 893.785 1025.78C949.491 999.377 1006.46 979.948 1041.47 941.647C1085.73 893.218 1089.26 824.265 1103.55 745.953C1117.57 669.044 1124.12 596.286 1160.39 535.251C1185.58 492.856 1226.54 458.707 1272.32 432.897C1364.12 381.125 1457.14 408.722 1527.23 353.375C1597.32 298.028 1617.38 235.974 1613.14 186.027C1608.47 131.045 1556.95 54.6167 1467.68 41.318C1416.24 33.6502 1359.78 23.484 1302.29 16.7002C1235.12 8.78251 1170.97 -27.5773 1143.03 -81.7712C1119.12 -128.163 1117.05 -185.181 1099.15 -240.74C1084.14 -287.362 1062.55 -329.026 1034.4 -362.195C1001.24 -401.284 957.729 -430.783 907.38 -446.292" stroke="#4700FB" stroke-miterlimit="10"/>
<path d="M798.062 1435.71C743.49 1360.44 710.289 1256.66 743.432 1167.63C769.029 1098.87 830.917 1047.11 896.896 1017.44C952.947 992.228 1010.63 975.739 1048.23 939.726C1095.72 894.257 1105.41 825.938 1120.08 748.068C1134.75 670.198 1137.13 595.268 1171.99 531.657C1196.51 486.899 1238.04 450.674 1284.84 423.596C1372.23 373.035 1461.69 394.405 1529.9 340.864C1595.03 289.726 1619.53 228.364 1616.59 178.033C1613.39 123.397 1564.02 50.2738 1480.64 33.9772C1430.03 24.0801 1374.47 12.4534 1317.62 5.40052C1252.96 -2.61325 1190.88 -35.6484 1161.62 -86.2678C1135.75 -130.987 1130.99 -186.949 1113.57 -241.931C1098.67 -288.957 1078.8 -331.812 1051.84 -366.731C1019.67 -408.394 976.259 -440.68 925.315 -458.514" stroke="#4700FB" stroke-miterlimit="10"/>
<path d="M802.44 1435.48C747.983 1357.08 712.536 1251.9 745.583 1160.36C770.719 1090.76 832.818 1037.77 900.007 1009.14C956.404 985.099 1014.8 971.569 1054.99 937.862C1105.68 895.352 1121.56 827.648 1136.62 750.22C1151.94 671.37 1150.12 594.307 1183.57 528.102C1207.38 480.981 1249.56 442.718 1297.32 414.334C1380.31 365.04 1466.18 380.126 1532.53 328.373C1594.95 279.675 1621.64 220.773 1619.99 170.077C1618.23 115.787 1571.07 45.7578 1493.57 26.6938C1443.77 14.4522 1389.13 1.49948 1332.9 -5.82246C1270.76 -13.9131 1210.7 -43.6044 1180.17 -90.6877C1152.29 -133.678 1144.87 -188.659 1127.94 -243.045C1113.17 -290.455 1095.01 -334.541 1069.22 -371.189C1038.07 -415.447 994.731 -450.52 943.212 -470.66" stroke="#4700FB" stroke-miterlimit="10"/>
<path d="M806.799 1435.25C752.457 1353.71 714.763 1247.13 747.733 1153.1C772.427 1082.63 834.7 1028.42 903.137 1000.84C959.879 977.969 1018.98 967.399 1061.79 935.978C1115.69 896.409 1137.75 829.358 1153.17 752.353C1169.14 672.542 1163.1 593.307 1195.18 524.527C1218.28 475.042 1261.14 434.781 1309.86 405.051C1388.49 357.084 1470.73 365.828 1535.23 315.862C1594.95 269.605 1623.8 213.163 1623.49 162.082C1623.16 108.119 1578.27 40.9724 1506.57 19.3717C1457.64 4.63176 1403.87 -9.49319 1348.26 -17.1034C1288.64 -25.2709 1230.5 -51.5415 1198.77 -95.1464C1168.8 -136.349 1158.83 -190.389 1142.36 -244.199C1127.73 -292.012 1111.29 -337.328 1086.65 -375.686C1056.56 -422.539 1013.28 -460.378 961.147 -482.844" stroke="#4700FB" stroke-miterlimit="10"/>
<path d="M811.177 1435.02C756.931 1350.37 717.048 1242.38 749.884 1145.82C774.136 1074.5 836.601 1019 906.267 992.516C963.336 970.8 1023.17 963.209 1068.56 934.095C1125.67 897.466 1153.94 831.069 1169.72 754.505C1186.37 673.753 1176.04 592.327 1206.8 520.953C1229.15 469.104 1272.76 426.902 1322.4 395.788C1396.71 349.205 1475.27 351.53 1537.92 303.37C1594.93 259.535 1625.93 205.553 1626.94 154.107C1628.02 100.47 1585.53 35.995 1519.53 12.0497C1471.54 -5.36148 1418.56 -20.4665 1363.59 -28.3842C1306.46 -36.6094 1250.2 -59.4208 1217.36 -99.6241C1185.22 -138.963 1172.77 -192.157 1156.78 -245.352C1142.28 -293.569 1127.61 -340.095 1104.09 -380.183C1075.09 -429.63 1031.81 -470.256 979.101 -495.028" stroke="#4700FB" stroke-miterlimit="10"/>
<path d="M815.536 1434.79C761.405 1347.01 719.314 1237.64 752.016 1138.55C775.846 1066.39 838.464 1009.6 909.377 984.195C966.792 963.632 1027.28 958.905 1075.32 932.192C1135.58 898.388 1170.1 832.76 1186.25 756.62C1203.57 674.906 1188.94 591.328 1218.38 517.359C1239.96 463.127 1284.38 419.061 1334.88 386.487C1404.93 341.306 1479.66 337.098 1540.55 290.841C1594.76 249.331 1627.96 197.923 1630.36 146.112C1632.82 92.8026 1592.88 30.8063 1532.45 4.72795C1485.52 -15.5275 1433.21 -31.4205 1378.87 -39.6649C1324.53 -47.9093 1269.8 -67.2038 1235.89 -104.102C1201.52 -141.48 1186.68 -193.906 1171.12 -246.524C1156.76 -295.145 1143.86 -342.881 1121.45 -384.699C1093.56 -436.741 1050.26 -480.134 996.959 -507.231" stroke="#4700FB" stroke-miterlimit="10"/>
<path d="M819.915 1434.56C765.88 1343.64 721.619 1232.89 754.185 1131.29C777.593 1058.26 840.365 1000.18 912.507 975.893C970.248 956.445 1031.48 954.734 1082.1 930.328C1145.58 899.483 1186.31 834.489 1202.81 758.791C1220.82 676.116 1201.85 590.386 1230 513.823C1250.79 457.227 1296.09 411.354 1347.42 377.243C1413.22 333.523 1484.21 322.838 1543.24 278.368C1594.74 239.299 1630.04 190.332 1633.82 138.156C1637.66 85.1728 1600.45 25.502 1545.41 -2.57505C1499.71 -25.8861 1447.88 -42.3556 1394.21 -50.9267C1342.1 -59.248 1289.45 -74.8719 1254.5 -108.541C1217.84 -143.863 1200.64 -195.636 1185.56 -247.658C1171.35 -296.682 1160.23 -345.611 1138.9 -389.177C1112.17 -443.813 1068.83 -489.993 1014.93 -519.396" stroke="#4700FB" stroke-miterlimit="10"/>
<path d="M824.273 1434.33C770.354 1340.3 723.923 1228.14 756.317 1124.02C779.302 1050.15 842.227 990.748 915.618 967.591C973.705 949.257 1035.67 950.583 1088.86 928.445C1155.57 900.541 1202.63 836.219 1219.32 760.924C1238.2 677.346 1214.71 589.406 1241.58 510.249C1261.58 451.308 1307.82 403.687 1359.92 367.961C1421.52 325.721 1488.73 308.54 1545.89 265.858C1594.68 229.229 1632.07 182.684 1637.26 130.181C1642.44 77.6781 1608.24 20.0635 1558.35 -9.8776C1514.07 -36.4556 1462.55 -53.2711 1409.52 -62.1689C1359.92 -70.5093 1309.03 -82.4243 1273.05 -112.98C1234.05 -146.092 1214.65 -197.384 1199.93 -248.792C1185.95 -298.258 1176.54 -348.339 1156.3 -393.655C1130.72 -450.866 1087.32 -499.832 1032.83 -531.561" stroke="#4700FB" stroke-miterlimit="10"/>
<path d="M828.651 1434.08C774.828 1336.92 726.4 1223.42 758.467 1116.72C781.145 1042.04 844.09 981.255 918.748 959.251C977.161 942.031 1039.88 946.375 1095.66 926.542C1165.59 901.597 1218.78 837.91 1235.89 763.038C1255.4 678.48 1227.6 588.426 1253.19 506.636C1272.38 445.331 1319.69 396.077 1372.46 358.66C1429.91 317.918 1493.3 294.223 1548.58 253.328C1594.68 219.139 1634.11 175.016 1640.71 122.167C1647.32 69.3185 1616.34 14.5481 1571.32 -17.238C1528.76 -47.2752 1477.22 -64.206 1424.84 -73.4881C1377.74 -81.8286 1328.66 -89.9384 1291.64 -117.497C1250.27 -148.264 1228.58 -199.172 1214.33 -250.002C1200.46 -299.853 1192.9 -351.145 1173.71 -398.209C1149.33 -457.995 1105.84 -509.768 1050.76 -543.802" stroke="#4700FB" stroke-miterlimit="10"/>
<path d="M833.01 1433.85C779.302 1333.55 728.57 1218.63 760.618 1109.46C782.797 1033.89 845.972 971.78 921.859 950.929C980.618 934.786 1044.06 942.185 1102.42 924.639C1175.58 902.654 1234.91 839.582 1252.42 765.171C1272.55 679.652 1240.44 587.465 1264.79 503.061C1283.15 439.412 1331.61 388.601 1384.96 349.377C1438.3 310.154 1497.81 279.925 1551.25 240.817C1594.65 209.069 1636.12 167.367 1644.17 114.172C1652.04 62.0923 1624.77 9.08998 1584.28 -24.5602C1543.8 -58.2103 1491.9 -75.1026 1440.16 -84.7691C1395.56 -93.1096 1348.32 -97.299 1310.2 -121.955C1266.5 -150.244 1242.46 -200.902 1228.73 -251.137C1215 -301.391 1209.28 -353.874 1191.13 -402.687C1167.95 -465.048 1124.37 -519.607 1068.68 -555.967" stroke="#4700FB" stroke-miterlimit="10"/>
</g>
</g>
<path d="M447 225L448.018 235.982L459 237L448.018 238.018L447 249L445.982 238.018L435 237L445.982 235.982L447 225Z" fill="white"/>
<path d="M688 842L689.018 852.982L700 854L689.018 855.018L688 866L686.982 855.018L676 854L686.982 852.982L688 842Z" fill="white"/>
</g>
<defs>
<clipPath id="clip0_84_521">
<rect width="1440" height="959" fill="white"/>
</clipPath>
</defs>
</svg>
