<svg width="201" height="59" viewBox="0 0 201 59" fill="none" xmlns="http://www.w3.org/2000/svg">
<g clip-path="url(#clip0_63_1050)">
<path d="M196.133 0.819458H4.10195C2.28955 0.819458 0.820312 2.28697 0.820312 4.09724V54.9028C0.820312 56.7131 2.28955 58.1806 4.10195 58.1806H196.133C197.946 58.1806 199.415 56.7131 199.415 54.9028V4.09724C199.415 2.28697 197.946 0.819458 196.133 0.819458Z" stroke="#F8F9FA" stroke-width="2"/>
<path d="M47.4239 28.1211C47.386 23.5837 51.1449 21.372 51.3199 21.2732C49.1893 18.1723 45.8869 17.7467 44.7227 17.7163C41.9453 17.4275 39.2592 19.3732 37.8439 19.3732C36.4058 19.3732 34.2295 17.7467 31.8783 17.7923C28.8574 17.8379 26.0343 19.586 24.4897 22.2917C21.2938 27.8171 23.6755 35.9342 26.742 40.4032C28.2714 42.5921 30.0597 45.0319 32.4033 44.9482C34.6937 44.857 35.5535 43.4889 38.3157 43.4889C41.055 43.4889 41.8616 44.9482 44.2509 44.895C46.7087 44.857 48.261 42.6985 49.7372 40.4944C51.5101 37.9864 52.2178 35.5162 52.2483 35.3946C52.1874 35.3566 47.4696 33.5554 47.4239 28.1211ZM42.9117 14.7749C44.1444 13.2321 44.989 11.142 44.7531 9.01392C42.9726 9.08988 40.7354 10.2451 39.457 11.75C38.3233 13.0801 37.3036 15.2537 37.57 17.2983C39.5636 17.4426 41.6257 16.2874 42.9117 14.7749Z" fill="#F8F9FA"/>
<path d="M80.6152 44.6214H77.4117L75.654 39.1188H69.5589L67.8849 44.6214H64.7651L70.8069 25.879H74.5354L80.6152 44.6214ZM75.1289 36.8083L73.5386 31.9137C73.3712 31.4121 73.0516 30.234 72.595 28.3795H72.5418C72.3592 29.1776 72.0548 30.3556 71.6515 31.9137L70.0916 36.8083H75.1289ZM96.1233 37.6975C96.1233 39.9929 95.4989 41.8093 94.2511 43.147C93.1321 44.3326 91.7398 44.9254 90.081 44.9254C88.2851 44.9254 86.9995 44.287 86.216 43.0101V50.1013H83.21V35.5466C83.21 34.1026 83.1723 32.6205 83.096 31.108H85.7435L85.9117 33.2514H85.9642C86.9692 31.6401 88.491 30.8268 90.5297 30.8268C92.1279 30.8268 93.4594 31.4577 94.5251 32.7193C95.59 33.981 96.1233 35.6455 96.1233 37.6975ZM93.064 37.8115C93.064 36.4967 92.767 35.4099 92.1738 34.5586C91.5265 33.6694 90.652 33.2285 89.5559 33.2285C88.8184 33.2285 88.1407 33.4793 87.5393 33.9658C86.9388 34.4598 86.5425 35.1059 86.3604 35.8962C86.2767 36.1927 86.2308 36.5042 86.2234 36.8083V39.0656C86.2234 40.046 86.5278 40.8744 87.1291 41.5585C87.7297 42.2349 88.514 42.5769 89.4796 42.5769C90.6134 42.5769 91.4962 42.1361 92.1279 41.2697C92.744 40.3881 93.064 39.2404 93.064 37.8115ZM111.691 37.6975C111.691 39.9929 111.068 41.8093 109.819 43.147C108.701 44.3326 107.309 44.9254 105.65 44.9254C103.854 44.9254 102.568 44.287 101.784 43.0101V50.1013H98.7781V35.5466C98.7781 34.1026 98.7404 32.6205 98.6641 31.108H101.312L101.48 33.2514H101.533C102.537 31.6401 104.059 30.8268 106.099 30.8268C107.697 30.8268 109.028 31.4577 110.093 32.7193C111.152 33.981 111.691 35.6455 111.691 37.6975ZM108.625 37.8115C108.625 36.4967 108.328 35.4099 107.735 34.5586C107.088 33.6694 106.213 33.2285 105.117 33.2285C104.379 33.2285 103.701 33.4793 103.093 33.9658C102.492 34.4598 102.096 35.1059 101.914 35.8962C101.822 36.2687 101.769 36.5727 101.769 36.8083V39.0656C101.769 40.046 102.074 40.8744 102.674 41.5585C103.276 42.2349 104.059 42.5769 105.034 42.5769C106.167 42.5769 107.049 42.1361 107.681 41.2697C108.313 40.3881 108.625 39.2404 108.625 37.8115ZM129.094 39.3696C129.094 40.9657 128.538 42.2653 127.428 43.261C126.21 44.3554 124.498 44.9026 122.314 44.9026C120.297 44.9026 118.677 44.5151 117.451 43.7322L118.144 41.2317C119.461 42.0145 120.914 42.4021 122.489 42.4021C123.623 42.4021 124.505 42.1437 125.137 41.6345C125.769 41.1253 126.088 40.4413 126.088 39.59C126.088 38.83 125.822 38.1916 125.304 37.6671C124.787 37.1503 123.927 36.6639 122.718 36.2231C119.43 34.9994 117.786 33.2057 117.786 30.8573C117.786 29.322 118.365 28.0604 119.529 27.0799C120.685 26.0994 122.223 25.6055 124.14 25.6055C125.845 25.6055 127.268 25.9019 128.401 26.4946L127.648 28.942C126.583 28.3644 125.388 28.0831 124.041 28.0831C122.983 28.0831 122.147 28.3415 121.553 28.8583C121.051 29.322 120.8 29.8844 120.8 30.5533C120.8 31.2904 121.089 31.9061 121.667 32.3849C122.17 32.8258 123.075 33.3122 124.391 33.829C126.004 34.4826 127.191 35.235 127.953 36.1091C128.713 36.9831 129.094 38.07 129.094 39.3696ZM139.062 33.3654H135.744V39.9244C135.744 41.5965 136.33 42.4249 137.502 42.4249C138.042 42.4249 138.483 42.3793 138.841 42.2881L138.925 44.5682C138.332 44.7887 137.556 44.9026 136.589 44.9026C135.402 44.9026 134.473 44.5378 133.804 43.8158C133.134 43.0937 132.8 41.8777 132.8 40.1753V33.3654H130.829V31.1157H132.8V28.638L135.752 27.7487V31.1157H139.069L139.062 33.3654ZM153.983 37.7583C153.983 39.8332 153.39 41.5433 152.203 42.8734C150.963 44.249 149.312 44.9331 147.249 44.9331C145.263 44.9331 143.681 44.2718 142.501 42.9646C141.322 41.6497 140.736 39.9852 140.736 37.9864C140.736 35.8887 141.345 34.1786 142.562 32.8409C143.78 31.5033 145.416 30.842 147.478 30.842C149.464 30.842 151.062 31.5033 152.264 32.8181C153.405 34.0874 153.983 35.7367 153.983 37.7583ZM150.864 37.8267C150.864 36.5879 150.598 35.5239 150.057 34.6422C149.426 33.5706 148.528 33.0309 147.356 33.0309C146.153 33.0309 145.226 33.5706 144.601 34.6422C144.061 35.5314 143.795 36.6107 143.795 37.8875C143.795 39.1264 144.061 40.1904 144.601 41.0797C145.248 42.1513 146.162 42.691 147.333 42.691C148.483 42.691 149.38 42.1437 150.035 41.0569C150.59 40.1372 150.864 39.0656 150.864 37.8267ZM163.762 33.753C163.449 33.6998 163.13 33.6694 162.81 33.6694C161.753 33.6694 160.939 34.0646 160.36 34.8627C159.858 35.5694 159.607 36.4587 159.607 37.5304V44.6214H156.601V35.3642C156.601 33.943 156.578 32.5293 156.518 31.108H159.136L159.241 33.6922H159.325C159.645 32.8029 160.14 32.0885 160.832 31.5489C161.456 31.0776 162.224 30.8268 163.008 30.8268C163.29 30.8268 163.533 30.8497 163.762 30.8801V33.753ZM177.207 37.2263C177.215 37.6824 177.176 38.1384 177.101 38.5868H168.076C168.107 39.9244 168.548 40.9428 169.385 41.6497C170.145 42.2805 171.127 42.5921 172.338 42.5921C173.676 42.5921 174.894 42.3793 175.99 41.9537L176.462 44.0362C175.183 44.591 173.669 44.8722 171.927 44.8722C169.826 44.8722 168.182 44.2566 166.98 43.0254C165.786 41.7941 165.184 40.1372 165.184 38.0623C165.184 36.0254 165.74 34.3306 166.859 32.9778C168.023 31.5337 169.606 30.8116 171.592 30.8116C173.539 30.8116 175.015 31.5337 176.02 32.9778C176.804 34.1254 177.207 35.539 177.207 37.2263ZM174.339 36.4511C174.361 35.5619 174.164 34.7942 173.753 34.1406C173.235 33.3046 172.429 32.8866 171.356 32.8866C170.374 32.8866 169.575 33.2969 168.958 34.1102C168.456 34.7562 168.16 35.539 168.068 36.4435L174.339 36.4511Z" fill="#F8F9FA"/>
<path d="M68.6913 19.2592C67.8543 19.2592 67.1315 19.2212 66.5303 19.1528V10.0856C67.375 9.95637 68.2272 9.88795 69.0794 9.89557C72.5264 9.89557 74.1168 11.5904 74.1168 14.3493C74.1091 17.5339 72.2373 19.2592 68.6913 19.2592ZM69.2011 11.0584C68.737 11.0584 68.3413 11.0888 68.0141 11.1572V18.0431C68.1891 18.0735 68.5316 18.0811 69.0109 18.0811C71.2708 18.0811 72.5568 16.7967 72.5568 14.395C72.5492 12.2441 71.385 11.0584 69.2011 11.0584ZM79.0627 19.3275C77.1224 19.3275 75.8592 17.8759 75.8592 15.9074C75.8592 13.8553 77.1452 12.3961 79.1693 12.3961C81.0868 12.3961 82.373 13.7793 82.373 15.801C82.373 17.8759 81.0488 19.3275 79.0627 19.3275ZM79.116 13.4753C78.0507 13.4753 77.3659 14.4709 77.3659 15.8694C77.3659 17.2375 78.0659 18.2331 79.1008 18.2331C80.1433 18.2331 80.8357 17.169 80.8357 15.839C80.8433 14.4862 80.1585 13.4753 79.116 13.4753ZM93.4518 12.5329L91.3745 19.1755H90.02L89.1602 16.295C88.9469 15.5882 88.7648 14.8738 88.6278 14.1518H88.5974C88.4908 14.8738 88.2849 15.6034 88.0642 16.295L87.1511 19.1755H85.7818L83.826 12.5329H85.3478L86.1009 15.687C86.2765 16.4394 86.4283 17.1463 86.5505 17.8227H86.5809C86.6875 17.2602 86.8697 16.5686 87.1289 15.7022L88.0724 12.5329H89.2743L90.18 15.6338C90.4007 16.3862 90.5755 17.1235 90.7125 17.8227H90.7502C90.8495 17.1386 90.9939 16.4166 91.1998 15.6338L92.0062 12.5329H93.4518ZM101.114 19.1755H99.6385V15.3602C99.6385 14.1822 99.1889 13.5969 98.2988 13.5969C97.4242 13.5969 96.8229 14.3493 96.8229 15.2234V19.1755H95.3469V14.4329C95.3469 13.8477 95.3314 13.2169 95.2936 12.5329H96.5948L96.6629 13.5589H96.7006C97.0969 12.8521 97.9033 12.3961 98.8091 12.3961C100.201 12.3961 101.122 13.4602 101.122 15.2006L101.114 19.1755ZM105.185 19.1755H103.709V9.48511H105.185V19.1755ZM110.58 19.3275C108.64 19.3275 107.377 17.8759 107.377 15.9074C107.377 13.8553 108.663 12.3961 110.687 12.3961C112.604 12.3961 113.891 13.7793 113.891 15.801C113.891 17.8759 112.559 19.3275 110.58 19.3275ZM110.634 13.4753C109.568 13.4753 108.884 14.4709 108.884 15.8694C108.884 17.2375 109.583 18.2331 110.618 18.2331C111.661 18.2331 112.353 17.169 112.353 15.839C112.353 14.4862 111.676 13.4753 110.634 13.4753ZM119.719 19.1755L119.612 18.4079H119.574C119.126 19.0235 118.464 19.3199 117.627 19.3199C116.431 19.3199 115.587 18.4839 115.587 17.3667C115.587 15.725 117.01 14.8814 119.475 14.8814V14.7598C119.475 13.8857 119.012 13.4449 118.099 13.4449C117.444 13.4449 116.865 13.6122 116.363 13.939L116.066 12.9661C116.683 12.586 117.451 12.3885 118.35 12.3885C120.084 12.3885 120.967 13.3005 120.967 15.1321V17.5795C120.967 18.2483 120.997 18.7727 121.066 19.1679L119.719 19.1755ZM119.514 15.8694C117.87 15.8694 117.048 16.2646 117.048 17.2071C117.048 17.9063 117.474 18.2483 118.06 18.2483C118.814 18.2483 119.514 17.6782 119.514 16.8954V15.8694ZM128.127 19.1755L128.059 18.1115H128.021C127.595 18.9172 126.879 19.3275 125.883 19.3275C124.277 19.3275 123.09 17.9215 123.09 15.9378C123.09 13.8629 124.323 12.3961 126.004 12.3961C126.895 12.3961 127.526 12.6925 127.876 13.3005H127.906V9.48511H129.382V17.3818C129.382 18.0203 129.398 18.6283 129.436 19.1679H128.127V19.1755ZM127.914 15.269C127.914 14.3417 127.298 13.5437 126.354 13.5437C125.258 13.5437 124.589 14.5166 124.589 15.877C124.589 17.2147 125.281 18.1343 126.324 18.1343C127.252 18.1343 127.914 17.3287 127.914 16.3711V15.269ZM138.773 19.3275C136.833 19.3275 135.569 17.8759 135.569 15.9074C135.569 13.8553 136.855 12.3961 138.879 12.3961C140.797 12.3961 142.082 13.7793 142.082 15.801C142.082 17.8759 140.759 19.3275 138.773 19.3275ZM138.826 13.4753C137.76 13.4753 137.075 14.4709 137.075 15.8694C137.075 17.2375 137.776 18.2331 138.811 18.2331C139.853 18.2331 140.546 17.169 140.546 15.839C140.553 14.4862 139.868 13.4753 138.826 13.4753ZM150.035 19.1755H148.558V15.3602C148.558 14.1822 148.109 13.5969 147.219 13.5969C146.344 13.5969 145.743 14.3493 145.743 15.2234V19.1755H144.266V14.4329C144.266 13.8477 144.251 13.2169 144.213 12.5329H145.514L145.583 13.5589H145.621C146.017 12.8521 146.823 12.3961 147.728 12.3961C149.121 12.3961 150.042 13.4602 150.042 15.2006V19.1755H150.035ZM159.972 13.6425H158.344V16.865C158.344 17.6859 158.625 18.0963 159.203 18.0963C159.462 18.0963 159.683 18.0659 159.858 18.0279L159.896 19.1451C159.607 19.2516 159.226 19.3124 158.747 19.3124C157.582 19.3124 156.882 18.6739 156.882 16.9866V13.6349H155.909V12.5252H156.882V11.3092L158.336 10.8684V12.5252H159.965L159.972 13.6425ZM167.802 19.1755H166.325V15.3906C166.325 14.2049 165.877 13.6045 164.986 13.6045C164.218 13.6045 163.511 14.1214 163.511 15.1778V19.1832H162.034V9.48511H163.511V13.4753H163.541C164.005 12.7533 164.682 12.3961 165.542 12.3961C166.95 12.3961 167.81 13.4905 167.81 15.2234L167.802 19.1755ZM175.814 16.2114H171.378C171.409 17.4655 172.238 18.1799 173.471 18.1799C174.125 18.1799 174.734 18.0735 175.266 17.8683L175.495 18.8943C174.863 19.1679 174.125 19.3048 173.265 19.3048C171.188 19.3048 169.956 17.9899 169.956 15.9606C169.956 13.9237 171.218 12.3961 173.098 12.3961C174.794 12.3961 175.86 13.6501 175.86 15.5502C175.875 15.763 175.86 15.991 175.814 16.2114ZM174.46 15.155C174.46 14.1289 173.943 13.4069 172.999 13.4069C172.147 13.4069 171.478 14.1441 171.386 15.155H174.46Z" fill="#F8F9FA"/>
</g>
<defs>
<clipPath id="clip0_63_1050">
<rect width="201" height="59" fill="white"/>
</clipPath>
</defs>
</svg>
